<?xml version="1.0" encoding="UTF-8"?>
<svg version="1.1" xmlns="http://www.w3.org/2000/svg" width="2000" height="2000">
<path d="M0 0 C660 0 1320 0 2000 0 C2000 660 2000 1320 2000 2000 C1340 2000 680 2000 0 2000 C0 1340 0 680 0 0 Z " fill="#FEFEFE" transform="translate(0,0)"/>
<path d="M0 0 C0.71220703 -0.00773438 1.42441406 -0.01546875 2.15820312 -0.0234375 C19.6538755 0.04012534 32.6732321 10.44446177 44.6875 22.125 C49.67237579 27.22725905 54.12279616 32.67406864 58.5625 38.25 C59.58294354 39.5052835 60.60518708 40.75910518 61.62890625 42.01171875 C67.90974238 49.69797156 74.11251682 57.4390857 80.22265625 65.26171875 C82.31876056 67.9387134 84.43316939 70.59940139 86.5625 73.25 C87.64483388 65.65433544 88.08497672 58.02842978 88.5625 50.375 C90.11549056 25.69700944 90.11549056 25.69700944 91.5625 24.25 C93.04475815 23.95964694 94.53891634 23.72998105 96.03515625 23.5234375 C97.0504541 23.38236572 98.06575195 23.24129395 99.11181641 23.09594727 C100.27116699 22.94053467 101.43051758 22.78512207 102.625 22.625 C103.86942871 22.45605225 105.11385742 22.28710449 106.39599609 22.11303711 C129.75950695 18.96718294 153.16353492 16.11711982 176.5625 13.25 C177.5447052 13.12927124 178.5269104 13.00854248 179.53887939 12.88415527 C202.66532253 10.04370131 225.82286167 7.55919908 249.00897598 5.26018143 C250.95384958 5.06708211 252.89860302 4.87277387 254.84335327 4.67843628 C280.25384922 2.14892481 305.63217914 -0.18612673 331.1875 -0.125 C332.20072327 -0.12345917 333.21394653 -0.12191833 334.25787354 -0.12033081 C385.85647866 0.06206491 437.36494206 7.40346204 488.5625 13.25 C489.86876343 13.39904785 491.17502686 13.5480957 492.52087402 13.70166016 C499.66120814 14.51802725 506.80020757 15.34495472 513.9375 16.1875 C514.75001221 16.28296112 515.56252441 16.37842224 516.3996582 16.47677612 C524.12068634 17.38863815 531.79666414 18.41808876 539.45800781 19.74780273 C543.12269158 20.34061923 546.79752036 20.82333492 550.48046875 21.28515625 C551.15696472 21.37002792 551.83346069 21.4548996 552.53045654 21.54234314 C555.32042406 21.89014761 558.11081037 22.2343873 560.90161133 22.57543945 C562.97003762 22.82918341 565.03776603 23.08809205 567.10546875 23.34765625 C568.32258545 23.49726807 569.53970215 23.64687988 570.79370117 23.80102539 C573.5625 24.25 573.5625 24.25 574.5625 25.25 C574.77817927 26.58414106 574.93363612 27.92813306 575.0625 29.2734375 C575.14443604 30.12075439 575.22637207 30.96807129 575.31079102 31.84106445 C575.43538696 33.21911255 575.43538696 33.21911255 575.5625 34.625 C575.69386353 36.0330188 575.69386353 36.0330188 575.82788086 37.46948242 C576.4690855 44.59085777 576.92247798 51.71127104 577.22070312 58.85498047 C577.43193075 63.7013612 577.90523319 68.44271794 578.5625 73.25 C585.67890941 64.73575321 592.69413624 56.17440176 599.375 47.3125 C604.14797042 40.99291254 609.16544646 35.05077015 614.5625 29.25 C615.7756969 27.85839179 616.98426214 26.46272812 618.1875 25.0625 C619.30874774 23.78835485 620.43358998 22.51736125 621.5625 21.25 C622.0678125 20.67765625 622.573125 20.1053125 623.09375 19.515625 C632.0734998 9.91961786 645.08695909 0.73401584 658.5390625 0.046875 C666.97939648 -0.09861664 674.72206346 -0.22420541 682.5625 3.25 C683.43938477 3.62125 683.43938477 3.62125 684.33398438 4 C694.79479922 8.49658907 702.69410638 14.06357251 710.5625 22.25 C711.29984375 22.99121094 712.0371875 23.73242188 712.796875 24.49609375 C741.60922535 54.92774286 747.77550625 101.58090268 747.8125 141.5625 C747.81383942 142.42306 747.81517883 143.28362 747.81655884 144.17025757 C747.81211787 157.51107969 747.28085803 170.76236179 746.25 184.0625 C746.19114624 184.84436676 746.13229248 185.62623352 746.07165527 186.43179321 C744.87372789 201.96687514 742.71817523 217.39066518 739.125 232.5625 C738.91109619 233.48272949 738.69719238 234.40295898 738.47680664 235.35107422 C736.73889674 242.72539625 734.80082516 250.0099853 732.5625 257.25 C732.28019531 258.20132812 731.99789062 259.15265625 731.70703125 260.1328125 C725.24187014 280.85520664 715.2649657 299.44268385 699.93066406 314.86279297 C698.72741438 316.08279024 697.55982341 317.33774121 696.3984375 318.59765625 C681.75228901 334.17686053 662.23966473 346.15604997 642.5625 354.25 C641.510625 354.72824219 640.45875 355.20648437 639.375 355.69921875 C622.56737133 363.01569746 604.66277428 365.64028174 586.4934082 367.08666992 C571.6332409 368.3849416 560.39737916 372.13236394 550.69140625 383.63671875 C547.91267631 387.60770652 548.4132611 391.62359401 548.5625 396.25 C548.8925 396.58 549.2225 396.91 549.5625 397.25 C549.9850153 401.89766832 549.36650795 404.51132274 546.5625 408.25 C542.87883063 410.70577958 539.83962976 411.0603156 535.5625 410.25 C531.32783884 407.12003306 529.91920976 404.2365034 528.5625 399.25 C527.458557 387.69710811 528.90123296 378.99029075 535.75 369.625 C549.51846233 353.044256 567.13989469 348.41198914 587.80322266 346.45898438 C589.30940755 346.31966146 590.81559245 346.18033854 592.32177734 346.04101562 C602.51593153 345.07751005 611.7928379 343.46760132 621.5625 340.25 C622.31515137 340.01120117 623.06780273 339.77240234 623.84326172 339.52636719 C640.78750975 333.98034963 656.60307705 325.29682136 670.5625 314.25 C671.14870117 313.78867676 671.73490234 313.32735352 672.33886719 312.85205078 C685.71475945 302.19392616 695.73464181 290.45444297 703.5625 275.25 C704.32626953 273.83460938 704.32626953 273.83460938 705.10546875 272.390625 C716.86211578 249.06644591 721.47667924 222.00266486 724.23779297 196.27246094 C724.44401836 194.35285921 724.65825812 192.43408833 724.88330078 190.51660156 C726.6903102 174.88639961 726.74600367 159.27667888 726.75 143.5625 C726.75099701 142.51634521 726.75199402 141.47019043 726.75302124 140.39233398 C726.75135385 124.92989322 726.67784049 109.75255891 723.4375 94.5625 C723.21868164 93.53576172 722.99986328 92.50902344 722.77441406 91.45117188 C718.38891509 71.82895316 710.57083515 53.71469631 697.5625 38.25 C696.6653125 36.950625 696.6653125 36.950625 695.75 35.625 C688.38737046 27.63128793 677.23844598 21.54915882 666.5390625 19.73828125 C653.99365848 19.22873403 645.65483149 26.65283624 636.87109375 34.72265625 C630.23788876 41.12940758 624.63482336 48.04007848 619.04101562 55.34375 C614.81084981 60.79770222 610.39329508 66.10612225 606.02587891 71.45019531 C604.75067673 73.01856209 603.48934413 74.59818577 602.23046875 76.1796875 C595.19695927 84.97483665 587.52595021 93.28654979 579.5625 101.25 C579.25187654 103.53891896 579.25187654 103.53891896 579.29125977 106.2265625 C579.28092712 107.27369415 579.27059448 108.32082581 579.25994873 109.39968872 C579.25795471 110.54654144 579.25596069 111.69339417 579.25390625 112.875 C579.23130229 115.33968494 579.20825289 117.80436582 579.18481445 120.26904297 C579.17568024 121.57049255 579.16654602 122.87194214 579.15713501 124.21282959 C578.8207142 169.94368354 576.91630657 216.53067041 566.5625 261.25 C566.15674375 263.12193963 565.75298788 264.99431436 565.3515625 266.8671875 C562.93748987 277.86212583 560.17440225 288.5860645 556.5625 299.25 C556.28035645 300.10142578 555.99821289 300.95285156 555.70751953 301.83007812 C542.17243227 342.61447023 523.29166659 373.96572889 492.79125977 404.22705078 C490.36345505 406.63645746 487.94388998 409.05391263 485.52539062 411.47265625 C483.96141022 413.03172436 482.39697308 414.59033445 480.83203125 416.1484375 C480.12037308 416.85898285 479.4087149 417.5695282 478.67549133 418.30160522 C474.69658759 422.24343126 470.62698776 426.02111096 466.37310791 429.66520691 C463.28203052 432.37077229 460.39372436 435.27411274 457.5 438.1875 C456.92701172 438.75662109 456.35402344 439.32574219 455.76367188 439.91210938 C452.83369762 442.84867525 450.02281541 445.84115638 447.32446289 448.99243164 C443.68779748 453.16581296 439.84363833 457.08058798 435.90625 460.96875 C434.8473053 462.02201477 434.8473053 462.02201477 433.76696777 463.09655762 C430.78352625 466.06383766 427.7940929 469.02505363 424.80517578 471.98681641 C422.60759421 474.16618465 420.41312062 476.34864947 418.21875 478.53125 C417.55500366 479.186698 416.89125732 479.842146 416.20739746 480.51745605 C412.34733133 484.35752311 408.68523398 488.30738915 405.14501953 492.44482422 C402.5925144 495.35645997 399.83062721 498.04543099 397.0625 500.75 C392.34161999 505.41129346 387.84001599 510.17401435 383.5625 515.25 C383.2325 515.58 382.9025 515.91 382.5625 516.25 C382.47618126 517.59267413 382.45543527 518.93974322 382.46484375 520.28515625 C382.46967773 521.49848633 382.46967773 521.49848633 382.47460938 522.73632812 C382.48298828 523.58646484 382.49136719 524.43660156 382.5 525.3125 C382.50676758 526.59350586 382.50676758 526.59350586 382.51367188 527.90039062 C382.52549627 530.01695663 382.54343231 532.13348685 382.5625 534.25 C384.47542847 534.10860596 384.47542847 534.10860596 386.42700195 533.96435547 C391.20134088 533.63625172 395.97471768 533.43120623 400.75708008 533.26123047 C402.8177069 533.17119603 404.87719847 533.04868925 406.93383789 532.89208984 C423.50439154 531.66285605 423.50439154 531.66285605 428.51119995 535.89859009 C432.01347782 540.18022641 434.32939102 544.99454372 436.55093384 550.03210449 C437.86914849 552.92233795 439.51734674 555.51222731 441.27734375 558.15234375 C441.81182129 558.98918701 442.34629883 559.82603027 442.89697266 560.68823242 C443.42597168 561.51299072 443.9549707 562.33774902 444.5 563.1875 C445.69428206 565.05711817 446.88828754 566.92691305 448.08203125 568.796875 C448.66549316 569.71017578 449.24895508 570.62347656 449.85009766 571.56445312 C452.47495258 575.68099206 455.08250075 579.80837666 457.6875 583.9375 C458.17468506 584.70956787 458.66187012 585.48163574 459.16381836 586.27709961 C460.14089666 587.82577765 461.11786657 589.37452409 462.09472656 590.92333984 C465.07611244 595.64932244 468.06085866 600.37318409 471.04541016 605.09716797 C473.64715821 609.21567614 476.24692554 613.33541654 478.84375 617.45703125 C479.38257813 618.31167969 479.92140625 619.16632812 480.4765625 620.046875 C481.50323217 621.67538551 482.52931261 623.30426769 483.5546875 624.93359375 C485.62419323 628.21507522 487.70493513 631.47316572 489.90625 634.66796875 C491.5625 637.25 491.5625 637.25 491.5625 639.25 C386.6225 639.25 281.6825 639.25 173.5625 639.25 C175.03657354 635.56481615 176.30108622 632.86838634 178.3984375 629.6171875 C178.96191895 628.73844971 179.52540039 627.85971191 180.10595703 626.9543457 C180.71036621 626.02066162 181.31477539 625.08697754 181.9375 624.125 C183.2138522 622.13691808 184.48988857 620.14863336 185.765625 618.16015625 C186.7256543 616.66766357 186.7256543 616.66766357 187.70507812 615.14501953 C190.38736841 610.96434154 193.03944047 606.76491301 195.6875 602.5625 C196.66923483 601.0064877 197.65100559 599.45049807 198.6328125 597.89453125 C199.35645996 596.74718506 199.35645996 596.74718506 200.09472656 595.57666016 C202.58233357 591.63339755 205.07256414 587.69179232 207.5625 583.75 C208.56251224 582.1666744 209.56251225 580.58334107 210.5625 579 C216.5625 569.5 216.5625 569.5 218.06518555 567.12084961 C219.05635642 565.55142839 220.04740636 563.98193079 221.03833008 562.41235352 C223.67238395 558.24050192 226.30906259 554.07033664 228.94921875 549.90234375 C229.50158203 549.02964844 230.05394531 548.15695312 230.62304688 547.2578125 C231.68738471 545.5763376 232.75245931 543.89532878 233.81835938 542.21484375 C234.29466797 541.46203125 234.77097656 540.70921875 235.26171875 539.93359375 C235.68283936 539.26900146 236.10395996 538.60440918 236.5378418 537.91967773 C237.61141162 536.22439817 237.61141162 536.22439817 238.5625 534.25 C253.0825 534.25 267.6025 534.25 282.5625 534.25 C284.35079999 517.80247047 284.35079999 517.80247047 279.5 512.125 C278.19834214 511.15199134 276.88581025 510.19334988 275.5625 509.25 C274.48788562 508.070872 273.44732185 506.86007033 272.4375 505.625 C268.66810897 501.24159052 264.57721313 497.20702578 260.44482422 493.16943359 C257.61372908 490.38323536 254.91898707 487.54223763 252.3359375 484.5234375 C248.69594887 480.34392533 244.84846725 476.42418056 240.90625 472.53125 C240.20028687 471.82907349 239.49432373 471.12689697 238.76696777 470.40344238 C236.53458642 468.18315397 234.29897889 465.96616045 232.0625 463.75 C229.11159622 460.82590521 226.16416797 457.89836943 223.21875 454.96875 C222.22313049 453.985578 222.22313049 453.985578 221.20739746 452.98254395 C217.33161801 449.12684499 213.66695695 445.15084647 210.0953064 441.01211548 C208.35146149 439.00738996 206.53701478 437.09533507 204.66015625 435.21484375 C203.99693359 434.55033203 203.33371094 433.88582031 202.65039062 433.20117188 C201.98201172 432.53666016 201.31363281 431.87214844 200.625 431.1875 C199.96048828 430.51912109 199.29597656 429.85074219 198.61132812 429.16210938 C197.94681641 428.49888672 197.28230469 427.83566406 196.59765625 427.15234375 C196.0137915 426.56960693 195.42992676 425.98687012 194.82836914 425.38647461 C192.84876341 423.51991608 190.82921525 421.73566933 188.77246094 419.95556641 C184.75939561 416.46132773 180.94255748 412.8074816 177.16796875 409.05859375 C176.4951033 408.39142838 175.82223785 407.724263 175.12898254 407.03688049 C173.71506223 405.63233738 172.30253648 404.2263891 170.89135742 402.8190918 C168.77257344 400.70997049 166.6433298 398.61180485 164.51367188 396.51367188 C153.65920443 385.74496323 143.68670764 374.59795079 135.875 361.375 C135.42423096 360.62379883 134.97346191 359.87259766 134.5090332 359.09863281 C125.14844084 343.28343294 117.90327124 326.56071894 111.93359375 309.19921875 C110.85524369 306.06334422 109.69434376 302.96878202 108.5 299.875 C102.8173123 284.21238556 99.69285995 267.56964226 96.5625 251.25 C96.35093262 250.15945313 96.13936523 249.06890625 95.92138672 247.9453125 C92.82735939 231.69404536 90.82710856 215.46339154 89.3125 199 C89.22950653 198.09937836 89.14651306 197.19875671 89.06100464 196.27084351 C88.51535926 190.26723613 88.02204968 184.26077215 87.5625 178.25 C87.50535828 177.53415741 87.44821655 176.81831482 87.38934326 176.08078003 C86.60900522 166.0330789 86.54783108 156.04834659 86.6328125 145.97265625 C86.64666056 142.07804387 86.65634702 138.18344755 86.6640625 134.28881836 C86.67977338 131.62336925 86.70948737 128.96300106 86.76464844 126.29858398 C87.94448472 109.90012967 87.94448472 109.90012967 81.72579956 95.53330994 C79.48975871 93.53070789 77.07316401 91.88810463 74.5625 90.25 C72.49951172 88.12475586 72.49951172 88.12475586 70.9375 86.25 C70.39351562 85.61320313 69.84953125 84.97640625 69.2890625 84.3203125 C63.77632208 77.7100129 58.36812486 71.02725804 53.0625 64.25 C45.53240039 54.63705135 37.86457507 45.21316624 29.5625 36.25 C28.99015625 35.61191406 28.4178125 34.97382812 27.828125 34.31640625 C21.74766752 27.81610765 13.05883485 21.10819477 4.01953125 19.9140625 C-8.51431692 19.72892442 -20.36800273 25.892926 -29.59765625 34.25390625 C-45.58510752 51.59910286 -54.13095452 73.89912961 -58.8125 96.6875 C-58.9681543 97.44248779 -59.12380859 98.19747559 -59.28417969 98.9753418 C-62.04131251 113.64587522 -61.63916467 128.6996124 -61.625 143.5625 C-61.62472809 144.63169678 -61.62445618 145.70089355 -61.62417603 146.80249023 C-61.6059263 162.38921285 -61.24275098 177.75492908 -59.4375 193.25 C-59.22858492 195.25254356 -59.02026905 197.25514971 -58.8125 199.2578125 C-55.88319532 226.12512933 -50.02870811 253.15008584 -37.4375 277.25 C-36.92960938 278.25804687 -36.42171875 279.26609375 -35.8984375 280.3046875 C-25.6762032 299.28883692 -8.99219518 312.84660224 8.90966797 324.19677734 C10.30749757 325.08750658 11.68893315 326.00388428 13.06640625 326.92578125 C21.28426213 332.22808478 30.44659721 335.80559689 39.5625 339.25 C40.24183594 339.50700684 40.92117188 339.76401367 41.62109375 340.02880859 C53.2139486 344.21868093 65.22175545 345.18337656 77.39474487 346.42547607 C96.72779637 348.42937365 115.58800966 352.49128426 128.5625 368.25 C135.64417971 378.41614465 137.41035185 386.87666206 136.5625 399.25 C135.76952355 403.45029715 134.58414338 406.34187255 131.3125 409.25 C127.74540405 410.5471258 125.33242575 410.78856082 121.5625 410.25 C118.93233839 408.0772578 117.08913106 406.30326212 115.5625 403.25 C115.4375 400.1875 115.4375 400.1875 115.5625 397.25 C115.8925 396.92 116.2225 396.59 116.5625 396.25 C117.0828861 390.21352124 116.45810041 386.08265024 112.5625 381.25 C101.49022707 369.05212256 87.94145614 368.42670948 72.45898438 366.60009766 C32.00800099 361.71079302 -1.54481861 346.13426686 -31.4375 318.25 C-32.2625 317.49074219 -33.0875 316.73148438 -33.9375 315.94921875 C-49.20762634 301.37102001 -58.76196983 283.06543067 -65.4375 263.25 C-65.77177002 262.25782471 -65.77177002 262.25782471 -66.11279297 261.24560547 C-83.08318544 210.18479933 -88.10916965 150.44441168 -79.4375 97.25 C-79.32003418 96.50621094 -79.20256836 95.76242187 -79.08154297 94.99609375 C-74.09810934 64.41362477 -60.35451308 31.27121175 -34.75 12.25390625 C-24.09205397 5.21421178 -12.93345942 -0.13969533 0 0 Z " fill="#F0D225" transform="translate(667.4375,553.75)"/>
<path d="M0 0 C6.8388545 0.85997939 13.68212489 1.67429689 20.5296936 2.46174622 C21.97856712 2.62842049 21.97856712 2.62842049 23.45671082 2.79846191 C27.98258013 3.31769213 32.50893109 3.83238937 37.03579712 4.34284973 C47.35630167 5.51661313 57.6366989 6.88325208 67.91421509 8.38801575 C74.49208259 9.35091346 81.08230491 10.21823756 87.67422485 11.07893372 C89.18313643 17.653477 90.094485 24.19128905 90.79922485 30.89143372 C90.88671997 31.71554749 90.97421509 32.53966125 91.06436157 33.38874817 C91.46133465 37.31015526 91.7147988 41.13333372 91.67422485 45.07893372 C81.91741544 44.52848385 72.30101944 43.62408512 62.61172485 42.32893372 C60.6915201 42.07428756 58.7713151 41.81964332 56.85110092 41.56506824 C50.9957519 40.78860003 45.14101016 40.00819352 39.28795052 39.2146368 C15.05940077 35.93331283 -9.20048585 33.09531713 -33.51327515 30.51643372 C-34.42097656 30.41991138 -35.32867798 30.32338905 -36.2638855 30.2239418 C-129.87848449 20.27482503 -217.57701681 24.67728038 -368.22860718 42.93928528 C-369.18167252 43.07915863 -370.13473785 43.21903198 -371.11668396 43.36314392 C-372.90196687 43.6275772 -374.6865747 43.89663128 -376.47029114 44.1714325 C-381.14999404 44.86856433 -385.59408668 45.21150514 -390.32577515 45.07893372 C-389.90517545 36.75548708 -389.35045214 28.47739252 -388.32577515 20.20393372 C-388.20130005 19.17912903 -388.20130005 19.17912903 -388.0743103 18.13362122 C-387.45373897 13.33486136 -387.45373897 13.33486136 -386.32577515 11.07893372 C-383.29366941 10.49098225 -380.32293343 10.030073 -377.26327515 9.64143372 C-376.35991928 9.52235657 -375.45656342 9.40327942 -374.52583313 9.28059387 C-352.35701706 6.37128005 -330.15605322 3.73863376 -307.95004272 1.13117981 C-304.17800364 0.68792343 -300.40612951 0.24330327 -296.6343689 -0.20231628 C-295.40679871 -0.34726028 -294.17922852 -0.49220428 -292.91445923 -0.64154053 C-285.47363073 -1.52684513 -278.04500961 -2.48042829 -270.6187439 -3.47966003 C-258.17730751 -5.14016897 -245.69685993 -6.31979617 -233.20077515 -7.48356628 C-230.97808349 -7.69347813 -228.7554271 -7.90376384 -226.5328064 -8.11442566 C-222.19702724 -8.52490369 -217.86099987 -8.93258747 -213.52474976 -9.33805847 C-209.47540575 -9.71736481 -205.42679061 -10.10325402 -201.37875366 -10.4962616 C-200.43931915 -10.58713547 -199.49988464 -10.67800934 -198.53198242 -10.77163696 C-196.80047054 -10.93948472 -195.06907354 -11.10852466 -193.33782959 -11.27911377 C-129.00027729 -17.49943513 -63.74360641 -8.05322558 0 0 Z " fill="#F0D227" transform="translate(1149.3257751464844,520.9210662841797)"/>
<path d="M0 0 C13.72473678 11.09659569 22.41189265 28.19815079 24.49267578 45.69970703 C26.59506552 69.8482087 23.24407649 92.63914399 7.6875 111.9375 C-2.11750464 122.952094 -15.43754945 128.29918769 -29.90625 129.1484375 C-44.61506384 129.53708502 -58.49273045 126.09499107 -69.56640625 115.87109375 C-83.89650245 100.00219527 -89.92939396 80.70155588 -89.75 59.5625 C-89.74097656 58.28608643 -89.73195313 57.00967285 -89.72265625 55.69458008 C-89.55346698 46.49432619 -88.85946776 38.51854949 -85.3125 29.9375 C-84.91780518 28.96731934 -84.91780518 28.96731934 -84.51513672 27.97753906 C-77.97776494 12.34260238 -68.06970182 0.88139793 -52.50390625 -6.37109375 C-35.05505343 -12.928595 -15.17448087 -10.47172457 0 0 Z " fill="#111616" transform="translate(755.3125,1289.0625)"/>
<path d="M0 0 C12.54 0 25.08 0 38 0 C42.50033902 11.25084756 42.50033902 11.25084756 44.02709961 15.93017578 C44.37103256 16.97891876 44.71496552 18.02766174 45.06932068 19.10818481 C45.42671829 20.20943695 45.78411591 21.31068909 46.15234375 22.4453125 C46.5343544 23.61399872 46.91636505 24.78268494 47.30995178 25.98678589 C48.11401959 28.44869533 48.91651989 30.91111722 49.7175293 33.37402344 C50.92748223 37.09419892 52.14200187 40.81285751 53.35742188 44.53125 C57.03228897 55.78965073 60.6889651 67.04908601 64.12719727 78.38232422 C64.74936188 80.89840805 64.74936188 80.89840805 66 82 C68.80048726 73.35878495 71.59992744 64.71723157 74.39808273 56.07526112 C75.69783029 52.06116067 76.99791936 48.04717155 78.29882812 44.03344727 C79.55755278 40.14982955 80.81532915 36.26590583 82.07248688 32.38178062 C82.54891419 30.91035021 83.02566586 29.43902476 83.50276947 27.96781349 C84.17819893 25.88483716 84.85261759 23.80153784 85.52636719 21.71801758 C85.73785778 21.06447705 85.94934837 20.41093653 86.16724777 19.73759174 C87.91841786 14.30339312 89.57969261 8.8453313 91.21026611 3.37382507 C92 1 92 1 93 0 C105.54 0 118.08 0 131 0 C131 44.22 131 88.44 131 134 C122.75 134 114.5 134 106 134 C105.67 97.7 105.34 61.4 105 24 C101.04 36.54 97.08 49.08 93 62 C89.0625 74.3125 89.0625 74.3125 87.21484375 80.0703125 C83.57792809 91.4267171 79.98859272 102.79836837 76.39086914 114.16723633 C75.84651851 115.88623097 75.30216636 117.60522513 74.7578125 119.32421875 C74.50918961 120.11065765 74.26056671 120.89709656 74.00440979 121.70736694 C73.76979538 122.44806427 73.53518097 123.1887616 73.29345703 123.9519043 C72.98989792 124.91135201 72.98989792 124.91135201 72.6802063 125.8901825 C71.80658769 128.59991312 70.90032492 131.29902525 70 134 C65.71 134 61.42 134 57 134 C54.25078704 127.97637814 52.2658144 121.80702947 50.3046875 115.48828125 C49.95575439 114.37470749 49.60682129 113.26113373 49.24731445 112.11381531 C48.50393563 109.74018882 47.7621782 107.36605403 47.02191162 104.99145508 C45.10493948 98.8423724 43.1765007 92.69688379 41.25 86.55078125 C40.87543671 85.35454132 40.50087341 84.15830139 40.11495972 82.92581177 C36.81489016 72.39129496 33.45371905 61.87798902 30.0546875 51.375 C27.00906144 41.92545299 24.01027604 32.46086756 21 23 C20.67 59.63 20.34 96.26 20 134 C13.4 134 6.8 134 0 134 C0 89.78 0 45.56 0 0 Z " fill="#101515" transform="translate(809,1282)"/>
<path d="M0 0 C0.66 0 1.32 0 2 0 C3.49616885 4.31827681 4.9893417 8.6375748 6.47998047 12.95776367 C6.98538254 14.42125039 7.49154259 15.88447562 7.99853516 17.34741211 C10.8647397 25.61967571 13.63376032 33.90062956 16.16894531 42.28198242 C17.42056878 46.37549712 18.84180357 50.40542012 20.265625 54.44140625 C21 57 21 57 21 61 C43.11 61 65.22 61 88 61 C85.40206849 63.59793151 83.46312022 65.52362651 80.55859375 67.5234375 C79.90197754 67.98008789 79.24536133 68.43673828 78.56884766 68.90722656 C77.86550293 69.3915918 77.1621582 69.87595703 76.4375 70.375 C69.93080752 74.90940892 63.5006742 79.53312052 57.125 84.25 C56.32642578 84.83974609 55.52785156 85.42949219 54.70507812 86.03710938 C51.27370466 88.57284587 47.84650382 91.11398008 44.42578125 93.6640625 C43.43964844 94.39367187 42.45351562 95.12328125 41.4375 95.875 C40.61121094 96.49117187 39.78492188 97.10734375 38.93359375 97.7421875 C37 99 37 99 35 99 C38.85367324 112.80695629 43.08367356 126.40988073 47.85302734 139.92871094 C50.53272153 147.55203911 52.96641495 155.17851902 55 163 C52.33851091 161.72757348 49.92766173 160.34399338 47.5234375 158.63671875 C46.86190674 158.16862793 46.20037598 157.70053711 45.51879883 157.21826172 C44.81134521 156.71311035 44.1038916 156.20795898 43.375 155.6875 C42.63080811 155.15914551 41.88661621 154.63079102 41.11987305 154.08642578 C36.42714625 150.74856866 31.7512402 147.3874855 27.08325195 144.01513672 C25.57402752 142.92504213 24.06345404 141.83681278 22.55151367 140.75048828 C18.97338359 138.17504899 15.4251009 135.57359368 11.9296875 132.88671875 C11.29571045 132.4086377 10.6617334 131.93055664 10.00854492 131.43798828 C8.82803298 130.54631322 7.65805571 129.64044697 6.5012207 128.71826172 C4.76929759 127.35958603 4.76929759 127.35958603 2 126 C-2.92423526 126.79370897 -7.24057391 130.89042867 -11.1875 133.8125 C-12.79803995 134.99107284 -14.40872112 136.16945271 -16.01953125 137.34765625 C-17.25437256 138.25475342 -17.25437256 138.25475342 -18.51416016 139.18017578 C-21.69232036 141.50683127 -24.88938726 143.80656257 -28.08764648 146.10546875 C-35.79477941 151.64664149 -43.43819209 157.26192223 -51 163 C-51.66 162.67 -52.32 162.34 -53 162 C-50.53549561 153.94598091 -48.02012113 145.91833421 -45.24609375 137.96484375 C-45.01572418 137.30376617 -44.78535461 136.6426886 -44.54800415 135.96157837 C-43.61163969 133.28114204 -42.67206549 130.60187391 -41.72680664 127.92456055 C-38.36181001 118.3763102 -35.46850058 108.82200605 -33 99 C-33.76642822 98.71189453 -34.53285645 98.42378906 -35.32250977 98.12695312 C-38.67022216 96.71790412 -41.09765954 94.76327764 -43.9375 92.5 C-48.44840879 88.95263625 -53.00390072 85.50380793 -57.6875 82.1875 C-58.53103027 81.58893188 -58.53103027 81.58893188 -59.39160156 80.97827148 C-60.59288885 80.12616856 -61.79439483 79.27437388 -62.99609375 78.42285156 C-66.90259209 75.64908544 -70.79653588 72.85799908 -74.6875 70.0625 C-75.46633545 69.50651123 -76.2451709 68.95052246 -77.04760742 68.37768555 C-77.77826416 67.85215088 -78.5089209 67.32661621 -79.26171875 66.78515625 C-79.91100342 66.31988525 -80.56028809 65.85461426 -81.22924805 65.37524414 C-83 64 -83 64 -86 61 C-63.89 61 -41.78 61 -19 61 C-18.67 58.69 -18.34 56.38 -18 54 C-17.13621193 51.33756462 -16.23470706 48.74035003 -15.25 46.125 C-13.14385315 40.36064291 -11.23283302 34.59269656 -9.5625 28.6875 C-6.80413183 18.97744615 -3.41480216 9.49542951 0 0 Z " fill="#FAFEB7" transform="translate(999,650)"/>
<path d="M0 0 C76.95115681 0 76.95115681 0 91.65234375 13.51953125 C99.09628729 21.30441877 102.41997641 32.44842042 102.27734375 43.05078125 C101.39182153 52.46724993 98.63517576 61.15701113 92 68 C91.35160156 68.68707031 90.70320313 69.37414063 90.03515625 70.08203125 C80.4969177 79.3787954 69.45652822 82.17450467 56.54296875 82.09765625 C55.74201782 82.09664917 54.94106689 82.09564209 54.11584473 82.09460449 C51.13971514 82.08939433 48.16360605 82.07543312 45.1875 82.0625 C38.525625 82.041875 31.86375 82.02125 25 82 C25 99.49 25 116.98 25 135 C16.75 135 8.5 135 0 135 C0 90.45 0 45.9 0 0 Z " fill="#121717" transform="translate(976,1281)"/>
<path d="M0 0 C1.25271667 0.00092179 2.50543333 0.00184359 3.79611111 0.00279331 C4.49116943 0.00193889 5.18622776 0.00108446 5.90234846 0.00020415 C8.24858902 -0.00145266 10.59475925 0.00407396 12.94099331 0.00952244 C14.61599634 0.00980429 16.2909995 0.00964661 17.96600246 0.00907993 C22.52779196 0.00879189 27.0895554 0.01468969 31.65133882 0.02165389 C36.41328917 0.02788632 41.17524006 0.02849114 45.93719387 0.0296793 C54.96115483 0.03279294 63.98510373 0.04100677 73.00905937 0.05102879 C83.27974403 0.0621889 93.55042926 0.06770012 103.82111847 0.07272422 C124.95475211 0.08318936 146.08837488 0.10078944 167.22199917 0.12304783 C167.22199917 0.45304783 167.22199917 0.78304783 167.22199917 1.12304783 C155.93038268 1.72815371 144.63871283 2.33225822 133.34699917 2.93554783 C132.50585442 2.98048878 131.66470966 3.02542973 130.79807568 3.07173252 C98.60786357 4.79124171 66.41586263 6.47325307 34.22199917 8.12304783 C43.40406757 8.49751818 52.58615855 8.87142945 61.76827621 9.24468994 C66.03516903 9.41815882 70.30205478 9.59179709 74.568923 9.76587009 C79.5118537 9.96749785 84.45480878 10.16852 89.39778042 10.36914158 C90.20704794 10.40202211 91.01631546 10.43490265 91.85010624 10.46877956 C103.50817494 10.94175003 115.16673574 11.39314919 126.82742214 11.79759312 C134.30842144 12.06367501 141.76302889 12.47504117 149.22199917 13.12304783 C149.22199917 13.45304783 149.22199917 13.78304783 149.22199917 14.12304783 C139.28271715 14.98462145 129.34337741 15.84552611 119.40397167 16.70567131 C114.78420581 17.1054799 110.16445708 17.50548405 105.54475307 17.90600681 C93.96790402 18.90958456 82.39067552 19.90863469 70.81285 20.90088749 C68.24925011 21.12071111 65.68569716 21.34107643 63.12214565 21.56146336 C59.06552136 21.90981013 55.00864146 22.25503377 50.95156002 22.59801388 C49.47359381 22.72332005 47.99569901 22.84947235 46.51788998 22.97661877 C45.82870731 23.035842 45.13952465 23.09506523 44.42945766 23.15608311 C43.83676964 23.20728211 43.24408161 23.25848112 42.63343334 23.31123161 C33.15463534 24.09041006 23.73533329 24.59452927 14.22199917 25.12304783 C60.42199917 26.11304783 106.62199917 27.10304783 154.22199917 28.12304783 C153.89199917 28.78304783 153.56199917 29.44304783 153.22199917 30.12304783 C150.87850231 30.45028493 148.63665077 30.64310226 146.27937222 30.76147556 C145.1843067 30.82792208 145.1843067 30.82792208 144.06711864 30.89571095 C141.62309226 31.04176741 139.17851227 31.17411279 136.73371792 31.30664158 C135.01467687 31.40689424 133.29568831 31.50805078 131.57675076 31.6100626 C127.91984823 31.82539893 124.26267824 32.03493947 120.60517788 32.23986912 C114.93031706 32.55801361 109.256275 32.88924735 103.58235073 33.22363377 C101.70298768 33.33427641 99.82362367 33.44490268 97.94425869 33.55551243 C97.01902779 33.6099791 96.09379688 33.66444576 95.14052868 33.72056293 C92.34552576 33.88462378 89.55045317 34.04744296 86.75535488 34.20987034 C73.56088538 34.97741002 60.37021049 35.78674585 47.18406582 36.68777561 C45.38970866 36.81035539 43.59525505 36.93153216 41.800704 37.05123997 C39.38361134 37.21258659 36.96683075 37.37790517 34.55012417 37.54492283 C33.26009487 37.63354588 31.97006557 37.72216892 30.64094448 37.81347752 C27.48400976 38.09932393 24.34871933 38.6019278 21.22199917 39.12304783 C67.09199917 39.78304783 112.96199917 40.44304783 160.22199917 41.12304783 C160.22199917 41.45304783 160.22199917 41.78304783 160.22199917 42.12304783 C155.31414084 43.05647562 150.50206034 43.40802189 145.52522182 43.64795017 C144.23969166 43.71409267 144.23969166 43.71409267 142.92819118 43.78157139 C140.08096875 43.92727407 137.233526 44.06809585 134.38606167 44.20898533 C132.35401194 44.31214706 130.32197897 44.41563923 128.28996181 44.51944065 C122.89634177 44.7941759 117.50252835 45.06490817 112.10865688 45.33465672 C103.69624745 45.75607216 95.28415197 46.18374144 86.87201595 46.61057377 C84.75612315 46.71786115 82.64022246 46.82499307 80.52431393 46.93196964 C54.0870072 48.2688013 27.65440169 49.6929631 1.22199917 51.12304783 C1.93208315 51.14274096 2.64216713 51.1624341 3.37376881 51.182724 C20.72983676 51.66424138 38.08582506 52.14853565 55.44173145 52.63584137 C63.83524746 52.87144246 72.2287869 53.10613708 80.62238979 53.338624 C87.94656602 53.5414922 95.27069021 53.7461363 102.59475958 53.95282751 C106.46521691 54.06199518 110.3356931 54.17033163 114.20623302 54.27653408 C145.15320782 55.12674845 145.15320782 55.12674845 160.22199917 56.12304783 C160.22199917 56.45304783 160.22199917 56.78304783 160.22199917 57.12304783 C80.52699917 60.09304783 80.52699917 60.09304783 -0.77800083 63.12304783 C24.70245515 64.73933217 24.70245515 64.73933217 50.193923 66.06860447 C51.8458092 66.14587192 53.49768463 66.22336986 55.14955044 66.30107212 C58.62205388 66.46397223 62.09462135 66.62538976 65.56725407 66.78551006 C71.07157934 67.03937719 76.57571469 67.29721822 82.07983303 67.55552769 C93.73125208 68.10180398 105.38286556 68.64387035 117.03449917 69.18554783 C129.69706675 69.77428773 142.35959352 70.3638534 155.02190703 70.95803636 C160.48308036 71.2141633 165.94435505 71.46796449 171.40572321 71.7199012 C174.79767342 71.87685564 178.18952722 72.03582221 181.58135891 72.19531536 C183.14251905 72.26831581 184.70371784 72.34049546 186.26495838 72.41175556 C194.60446037 72.79284632 202.9159216 73.26266611 211.22199917 74.12304783 C211.22199917 74.45304783 211.22199917 74.78304783 211.22199917 75.12304783 C125.09199917 75.12304783 38.96199917 75.12304783 -49.77800083 75.12304783 C-48.46595793 72.49896202 -47.18401759 70.05638756 -45.66862583 67.56836033 C-45.25105015 66.88265965 -44.83347446 66.19695896 -44.40324497 65.49047947 C-43.94941441 64.75047703 -43.49558384 64.01047459 -43.02800083 63.24804783 C-42.54774448 62.46357273 -42.06748814 61.67909763 -41.57267857 60.87085056 C-35.99312949 51.79375329 -30.24850338 42.82231343 -24.51237583 33.84375095 C-21.77492364 29.54952697 -19.0571525 25.24294997 -16.34050083 20.93554783 C-15.36658253 19.39255381 -14.39262589 17.84958399 -13.41862583 16.30664158 C-12.14570314 14.28996312 -10.87278597 12.27328149 -9.60026646 10.25634861 C-8.5983595 8.66939634 -7.59452051 7.08366428 -6.59050083 5.49804783 C-6.06069614 4.6601572 -5.53089146 3.82226658 -4.98503208 2.95898533 C-3.13082862 0.13867586 -3.13082862 0.13867586 0 0 Z " fill="#FAFCB0" transform="translate(917.778000831604,1102.8769521713257)"/>
<path d="M0 0 C0.00586624 0.62892151 0.01173248 1.25784302 0.01777649 1.90582275 C0.02155407 63.3267246 0.02155407 63.3267246 7.4453125 124.15917969 C8.04270756 127.21872587 8.59975168 130.28432928 9.15625 133.3515625 C16.76290089 174.29405981 31.96554449 212.53311341 60.56640625 243.3203125 C62.97891748 245.97678554 65.248475 248.70636793 67.5 251.5 C70.55348679 255.28460334 73.70668301 258.92207537 77 262.5 C81.01605847 266.86769492 84.79385454 271.36849236 88.51953125 275.984375 C91.44968595 279.54670481 94.46769057 283.02465126 97.5 286.5 C102.01499643 291.67910014 106.43238564 296.91836616 110.7578125 302.2578125 C113.30254004 305.37000541 115.89632352 308.43714108 118.5 311.5 C123.40462754 317.27635504 128.22231641 323.11800432 133 329 C134.00899009 330.23838269 135.01811311 331.47665708 136.02734375 332.71484375 C143.40220378 341.76968693 150.71915476 350.8694265 158 360 C156.68 361.32 155.36 362.64 154 364 C153.60321045 363.57291748 153.2064209 363.14583496 152.79760742 362.70581055 C145.51435768 354.87613318 138.22290144 347.08898089 130.5625 339.625 C128.58468333 337.5989439 126.74900622 335.56189784 124.91316223 333.41337585 C120.75731817 328.64957335 116.31788354 324.20694199 111.8269043 319.76098633 C110.4575224 318.39877778 109.08814258 317.03656714 107.71884024 315.67427862 C106.26090984 314.22469621 104.80176361 312.77634732 103.3423214 311.32828712 C100.28146914 308.29073514 97.22569987 305.24810321 94.17085266 302.20451355 C85.48813683 293.55503278 76.80127375 284.90974859 68.10375977 276.27514648 C63.28892594 271.4950549 58.47964883 266.70944292 53.67625743 261.91785258 C51.14380829 259.39211143 48.60869039 256.86919395 46.06656456 254.35318947 C21.63406353 230.16529505 5.67663574 205.47504709 -6.14453125 173.24389648 C-6.8723147 171.33491882 -7.68720881 169.45952164 -8.51953125 167.59375 C-28.88133099 118.16668995 -32.57573978 55.9680593 -32 3 C-28.35547656 2.49013736 -24.70921254 1.99394154 -21.0625 1.5 C-19.53012695 1.28537109 -19.53012695 1.28537109 -17.96679688 1.06640625 C-16.45375977 0.86337891 -16.45375977 0.86337891 -14.91015625 0.65625 C-13.53549194 0.46772461 -13.53549194 0.46772461 -12.13305664 0.27539062 C-8.08175494 -0.08071226 -4.06388195 -0.05324278 0 0 Z " fill="#FAFEB6" transform="translate(809,686)"/>
<path d="M0 0 C6.6 0 13.2 0 20 0 C20 44.55 20 89.1 20 135 C-4 135 -4 135 -9.46484375 129.89453125 C-10.74203926 127.53158282 -11.85394109 125.25399268 -12.9375 122.8125 C-13.5931894 121.53405387 -14.25881253 120.26066036 -14.93359375 118.9921875 C-16.32837164 116.34709837 -17.67400028 113.68472403 -18.98779297 110.99853516 C-21.83196975 105.2516623 -25.13993061 99.78562799 -28.43347168 94.28860474 C-29.85712759 91.90108473 -31.25503392 89.49893174 -32.65371704 87.09672546 C-38.07004216 77.80140766 -43.66113047 68.61324807 -49.29296875 59.44726562 C-49.95296875 58.36896484 -50.61296875 57.29066406 -51.29296875 56.1796875 C-52.15184692 54.78339111 -52.15184692 54.78339111 -53.02807617 53.35888672 C-55.79968177 48.63785789 -58.37853448 43.80602012 -61 39 C-61.33 70.68 -61.66 102.36 -62 135 C-68.27 135 -74.54 135 -81 135 C-81 90.78 -81 46.56 -81 1 C-54 1 -54 1 -48.2421875 6.10546875 C-46.98031572 8.47793178 -45.91420554 10.73040518 -44.875 13.1875 C-44.23795841 14.46063627 -43.58962706 15.72817755 -42.9309082 16.99023438 C-41.56736778 19.62807747 -40.25958952 22.28401963 -38.98583984 24.96630859 C-36.11904772 30.9110624 -32.68440317 36.51805632 -29.28417969 42.16815186 C-27.48188938 45.17862263 -25.72181544 48.21354218 -23.95703125 51.24609375 C-20.03250987 57.9678517 -16.04230535 64.64910419 -12.01635742 71.31054688 C-8.27666182 77.50443958 -4.64748086 83.74717567 -1 90 C-0.67 60.3 -0.34 30.6 0 0 Z " fill="#101515" transform="translate(1304,1281)"/>
<path d="M0 0 C1.29349365 0.00523682 2.5869873 0.01047363 3.91967773 0.01586914 C4.9496714 0.01799156 4.9496714 0.01799156 6.00047302 0.02015686 C8.20144949 0.0257706 10.40232557 0.03832532 12.60327148 0.05102539 C14.09220231 0.05603863 15.58113473 0.06060184 17.07006836 0.06469727 C20.72700223 0.07574446 24.38387707 0.09301826 28.04077148 0.11352539 C33.78129742 17.2884329 39.51841002 34.46447655 45.25143433 51.64188957 C47.91330951 59.61719185 50.57631066 67.59211487 53.24194336 75.56616211 C55.56464343 82.51436064 57.8852506 89.46325395 60.20332146 96.41299832 C61.43138788 100.09458475 62.66051695 103.77580881 63.89215088 107.45620346 C65.05038854 110.91738342 66.20583429 114.37948248 67.35910797 117.84231949 C67.98687948 119.72481788 68.61764092 121.60631835 69.24847412 123.48779297 C69.6186969 124.60121063 69.98891968 125.7146283 70.37036133 126.86178589 C70.69483246 127.83335569 71.01930359 128.8049255 71.35360718 129.80593681 C72.04077148 132.11352539 72.04077148 132.11352539 72.04077148 134.11352539 C63.46077148 134.11352539 54.88077148 134.11352539 46.04077148 134.11352539 C41.96862519 123.93315964 38.50807912 113.51544829 35.04077148 103.11352539 C18.21077148 102.78352539 1.38077148 102.45352539 -15.95922852 102.11352539 C-16.94922852 105.74352539 -17.93922852 109.37352539 -18.95922852 113.11352539 C-19.54606286 115.00955261 -20.14862726 116.9009896 -20.78344727 118.78149414 C-21.19856567 120.01935669 -21.19856567 120.01935669 -21.62207031 121.28222656 C-21.96020752 122.27843018 -22.29834473 123.27463379 -22.64672852 124.30102539 C-24.28641602 129.15821289 -24.28641602 129.15821289 -25.95922852 134.11352539 C-32.88922852 134.11352539 -39.81922852 134.11352539 -46.95922852 134.11352539 C-46.28595056 129.40057972 -45.70712293 125.85757379 -44.2512207 121.49502563 C-43.89789673 120.42666473 -43.54457275 119.35830383 -43.18054199 118.25756836 C-42.79297729 117.10611328 -42.4054126 115.9546582 -42.00610352 114.76831055 C-41.59791382 113.53994476 -41.18972412 112.31157898 -40.76916504 111.04598999 C-39.65483807 107.69335787 -38.53307042 104.34325965 -37.40974426 100.99363375 C-36.23445594 97.48538745 -35.06552574 93.9750233 -33.89575195 90.4649353 C-31.93271989 84.57770867 -29.96505755 78.69204616 -27.99438477 72.80737305 C-25.71398823 65.99770931 -23.439916 59.18596006 -21.16941452 52.3729912 C-18.98480323 45.81793854 -16.79677166 39.26403334 -14.60681152 32.71076584 C-13.67447202 29.92081928 -12.74315826 27.13053341 -11.81262207 24.33998489 C-10.51613642 20.45290205 -9.21455394 16.56754513 -7.91235352 12.68237305 C-7.52478882 11.51877258 -7.13722412 10.35517212 -6.73791504 9.15631104 C-6.38459106 8.10486908 -6.03126709 7.05342712 -5.66723633 5.97012329 C-5.3597345 5.05096949 -5.05223267 4.13181568 -4.7354126 3.18480873 C-3.55345905 0.03071068 -3.53708043 0.13569362 0 0 Z " fill="#111616" transform="translate(1127.959228515625,1281.886474609375)"/>
<path d="M0 0 C11.35925325 8.59225566 19.08035813 20.71491749 21.75 34.8125 C21.79274558 36.81204315 21.80185576 38.81317237 21.75 40.8125 C18.85452736 41.14925279 15.95868928 41.48201734 13.0625 41.8125 C12.24587891 41.90789062 11.42925781 42.00328125 10.58789062 42.1015625 C6.62139948 42.55120522 2.74997537 42.94284543 -1.25 42.8125 C-1.46914063 41.99007813 -1.68828125 41.16765625 -1.9140625 40.3203125 C-4.53408678 31.09697498 -7.64012809 21.11088272 -16.25 15.8125 C-22.73017124 12.70883904 -30.91245356 12.34388191 -37.73046875 14.65234375 C-45.0049864 18.83132197 -49.5366917 26.03571251 -52.25 33.8125 C-57.46701809 54.14977824 -58.15272922 78.98001592 -47.65625 97.796875 C-43.59902607 103.6122293 -38.18311733 107.3009555 -31.25 108.8125 C-24.42043691 109.69478805 -18.8572602 108.95091449 -13.25 104.8125 C-6.21917468 98.44306111 -2.61108515 91.1265925 -1.25 81.8125 C1.64611544 81.95384727 4.5418081 82.1004153 7.4375 82.25 C8.25412109 82.28931641 9.07074219 82.32863281 9.91210938 82.36914062 C13.94655811 82.58148003 17.80747309 82.85697922 21.75 83.8125 C21.19574686 98.38935761 15.60803049 109.67145333 4.875 119.6875 C-7.57769656 129.83414164 -22.64589273 132.3073354 -38.25 130.8125 C-51.38851587 128.47923291 -61.36884726 121.4452621 -69.25 110.8125 C-78.95865213 95.66520478 -82.83363503 78.83989013 -82.6875 61 C-82.68379395 60.34263855 -82.68008789 59.6852771 -82.67626953 59.00799561 C-82.51880973 39.3619026 -77.77661215 20.33440142 -63.5859375 5.92578125 C-46.27845767 -9.73198897 -19.94314772 -12.93446986 0 0 Z " fill="#111616" transform="translate(625.25,1287.1875)"/>
<path d="M0 0 C9.9 0 19.8 0 30 0 C32.02125 3.63 34.0425 7.26 36.125 11 C41.2381648 20.14817567 46.41651009 29.25416484 51.6875 38.3125 C52.2748291 39.32505859 52.8621582 40.33761719 53.46728516 41.38085938 C54.01819824 42.32380859 54.56911133 43.26675781 55.13671875 44.23828125 C55.61842529 45.06368408 56.10013184 45.88908691 56.59643555 46.73950195 C57.95543306 48.92822312 59.42133027 50.96561374 61 53 C61.35602295 52.33282959 61.7120459 51.66565918 62.07885742 50.97827148 C69.20790343 37.63567985 76.41614428 24.35461412 83.91088867 11.21264648 C84.41982666 10.32005127 84.92876465 9.42745605 85.453125 8.5078125 C85.89817383 7.73066895 86.34322266 6.95352539 86.80175781 6.15283203 C87.92590181 4.13312915 88.96627862 2.06744276 90 0 C97.92 0 105.84 0 114 0 C112.44040681 3.89898299 110.81981963 7.30360038 108.796875 10.953125 C108.48257538 11.52187851 108.16827576 12.09063202 107.8444519 12.67662048 C106.81585985 14.53603229 105.78301836 16.3930442 104.75 18.25 C104.02894069 19.55108097 103.3080773 20.85227054 102.58740234 22.15356445 C96.91642415 32.38491292 91.20531136 42.59387075 85.4765625 52.79296875 C84.94820801 53.77007813 84.41985352 54.7471875 83.87548828 55.75390625 C82.46454355 58.19596836 81.02582108 60.4093357 79.40185547 62.69921875 C70.03909463 76.56247478 70.63959926 90.35799695 70.875 106.625 C70.88255687 109.28916114 70.87437567 111.95299182 70.8671875 114.6171875 C70.85110835 121.08100476 70.92744621 127.53417702 71 134 C62.42 134 53.84 134 45 134 C45.03222656 129.98714844 45.06445312 125.97429687 45.09765625 121.83984375 C45.09813775 118.59653674 45.08955869 115.35352853 45.0749588 112.11026764 C45.06209241 108.7101648 45.06438164 105.31177253 45.10620117 101.91186523 C45.2696352 85.77944107 45.28529963 73.8182225 35 61 C33.9259586 59.26704706 32.88085274 57.51558849 31.875 55.7421875 C31.40449219 54.94635254 30.93398437 54.15051758 30.44921875 53.33056641 C29.97097656 52.52022949 29.49273438 51.70989258 29 50.875 C28.47019531 49.9782959 27.94039062 49.0815918 27.39453125 48.15771484 C24.10574238 42.5857765 20.83016044 37.00621888 17.5625 31.421875 C17.18407959 30.77537994 16.80565918 30.12888489 16.41577148 29.46279907 C14.55025816 26.27548314 12.68606582 23.08740818 10.82421875 19.89794922 C7.94852174 14.97928825 5.07377677 10.0718966 2 5.2734375 C0 2 0 2 0 0 Z " fill="#101515" transform="translate(1343,1282)"/>
<path d="M0 0 C8.44147306 5.30443915 12.05246301 13.17275579 14.70703125 22.51171875 C19.01886238 41.84476623 19.55472186 66.3716518 9.734375 84.08984375 C5.03161699 90.44430214 -1.52796269 94.49991314 -9.265625 96.08984375 C-17.8036816 96.51674658 -24.61497657 95.50400266 -31.3828125 89.95703125 C-39.15559162 82.24875652 -41.04866001 72.39020419 -43.265625 62.08984375 C-43.4414209 61.45038818 -43.6172168 60.81093262 -43.79833984 60.15209961 C-47.39721342 44.26929655 -44.53327113 22.18987938 -35.96875 8.26171875 C-27.72900874 -2.2458412 -12.22610675 -5.66894266 0 0 Z " fill="#FDFDFD" transform="translate(736.265625,1301.91015625)"/>
<path d="M0 0 C-0.05582748 0.555737 -0.11165497 1.111474 -0.16917419 1.68405151 C-0.92548888 9.22855796 -1.66842915 16.77435974 -2.41015625 24.3203125 C-2.54324134 25.6736559 -2.67633372 27.02699857 -2.80943298 28.38034058 C-3.15637316 31.90819602 -3.50321574 35.43606105 -3.85003662 38.96392822 C-4.20530295 42.57752055 -4.56066349 46.19110361 -4.91601562 49.8046875 C-5.61076825 56.8697827 -6.30541758 63.93488806 -7 71 C-9.56353569 71.48711882 -12.12737119 71.97255396 -14.69140625 72.45703125 C-15.77403748 72.66301941 -15.77403748 72.66301941 -16.87854004 72.87316895 C-23.52587726 74.12677519 -29.97693317 75.05070408 -36.75390625 75.01953125 C-37.55256104 75.01671143 -38.35121582 75.0138916 -39.17407227 75.01098633 C-39.77662842 75.00736084 -40.37918457 75.00373535 -41 75 C-41.24191221 60.10006856 -40.9980697 45.30558044 -40.0625 30.4375 C-40.01893372 29.73875763 -39.97536743 29.04001526 -39.93048096 28.32009888 C-39.43783772 20.53122365 -38.85564843 12.7584165 -38 5 C-34.83341057 4.54763008 -31.66678395 4.09553839 -28.5 3.64453125 C-25.16581193 3.16854402 -21.83278032 2.68496111 -18.5 2.19921875 C-17.55987061 2.06298096 -16.61974121 1.92674316 -15.65112305 1.78637695 C-13.77474059 1.51444916 -11.89859554 1.2408775 -10.02270508 0.96557617 C-8.72175903 0.77765503 -8.72175903 0.77765503 -7.39453125 0.5859375 C-6.23207886 0.41650635 -6.23207886 0.41650635 -5.04614258 0.24365234 C-3 0 -3 0 0 0 Z " fill="#FAFEB6" transform="translate(818,594)"/>
<path d="M0 0 C5.40375 -0.0825 10.8075 -0.165 16.375 -0.25 C18.05899902 -0.28641602 19.74299805 -0.32283203 21.47802734 -0.36035156 C30.65873895 -0.47590951 39.45489341 -0.42856539 46.4375 6.375 C46.953125 7.24125 47.46875 8.1075 48 9 C48.86625 10.36125 48.86625 10.36125 49.75 11.75 C51.76632766 16.99245193 51.92158882 21.31794023 50.0859375 26.66015625 C47.12323142 33.14943828 44.017519 36.38467878 37.31005859 39.08154297 C33.47329829 40.14614632 29.92079932 40.25268486 25.9765625 40.1953125 C25.31422607 40.19329834 24.65188965 40.19128418 23.96948242 40.18920898 C21.52125005 40.17883155 19.07311726 40.15090964 16.625 40.125 C8.395625 40.063125 8.395625 40.063125 0 40 C0 26.8 0 13.6 0 0 Z " fill="#FBFCFC" transform="translate(1001,1302)"/>
<path d="M0 0 C1.86325672 2.79488508 2.7533892 4.91033261 3.78759766 8.06640625 C4.29790024 9.6131604 4.29790024 9.6131604 4.81851196 11.19116211 C5.18004364 12.30370361 5.54157532 13.41624512 5.9140625 14.5625 C6.28856537 15.70533447 6.66306824 16.84816895 7.04891968 18.02563477 C7.8395603 20.44245855 8.62788126 22.86004224 9.4140625 25.27832031 C10.62085757 28.9872687 11.83724754 32.6929715 13.0546875 36.3984375 C13.82089136 38.7446027 14.58653536 41.09095083 15.3515625 43.4375 C15.71714264 44.5500415 16.08272278 45.66258301 16.4593811 46.80883789 C16.7932785 47.84000732 17.1271759 48.87117676 17.47119141 49.93359375 C17.76716217 50.84165771 18.06313293 51.74972168 18.36807251 52.68530273 C19 55 19 55 19 58 C6.79 58 -5.42 58 -18 58 C-16.87501589 50.12511121 -16.87501589 50.12511121 -15.86425781 47.13867188 C-15.64022278 46.4668689 -15.41618774 45.79506592 -15.18536377 45.10290527 C-14.94372498 44.39863403 -14.70208618 43.69436279 -14.453125 42.96875 C-14.20004578 42.21517212 -13.94696655 41.46159424 -13.68621826 40.68518066 C-12.87980999 38.28816532 -12.065124 35.89406371 -11.25 33.5 C-10.71818791 31.92466881 -10.1869335 30.34914924 -9.65625 28.7734375 C-8.61413578 25.68133368 -7.56901492 22.59027287 -6.52148438 19.5 C-4.32312021 13.00818637 -2.16088065 6.50437147 0 0 Z " fill="#FBFBFB" transform="translate(1137,1306)"/>
<path d="M0 0 C4.88478796 2.35193495 7.36061943 5.30776787 10 10 C12.24958473 17.27365729 11.58404656 24.31579662 8.2109375 31.0859375 C5.83752585 34.83745914 3.13965962 36.62011346 -1 38 C-5.7237181 38.54885106 -9.10134882 38.46596728 -13.375 36.25 C-18.2250978 32.09277332 -20.52528704 28.15905233 -21.26171875 21.70703125 C-21.57730076 14.68805211 -20.25921021 8.70011132 -15.52734375 3.328125 C-10.85357058 -0.60535785 -5.90317494 -1.04403259 0 0 Z " fill="#171D1D" transform="translate(877,1454)"/>
<path d="M0 0 C3.691875 -0.103125 7.38375 -0.20625 11.1875 -0.3125 C12.92036255 -0.38078003 12.92036255 -0.38078003 14.68823242 -0.45043945 C22.26638696 -0.55314243 22.26638696 -0.55314243 26.17578125 2.39453125 C29.07740395 6.53881891 29.34581506 8.89922788 29 14 C26.8 18.6 26.8 18.6 24 20 C24.61977129 23.63381693 25.63045131 26.79472515 27.0625 30.1875 C29 34.78647687 29 34.78647687 29 37 C26.36 37 23.72 37 21 37 C20.16260219 34.8765984 19.33019717 32.7512272 18.5 30.625 C18.0359375 29.44164062 17.571875 28.25828125 17.09375 27.0390625 C16 24 16 24 16 22 C13.03 22 10.06 22 7 22 C7 26.95 7 31.9 7 37 C4.69 37 2.38 37 0 37 C0 24.79 0 12.58 0 0 Z " fill="#161B1B" transform="translate(1159,1455)"/>
<path d="M0 0 C2.64 0 5.28 0 8 0 C8 4.95 8 9.9 8 15 C12.29 15 16.58 15 21 15 C21 10.05 21 5.1 21 0 C23.31 0 25.62 0 28 0 C28 12.54 28 25.08 28 38 C25.69 38 23.38 38 21 38 C21 32.72 21 27.44 21 22 C16.71 22 12.42 22 8 22 C8 27.28 8 32.56 8 38 C5.36 38 2.72 38 0 38 C0 25.46 0 12.92 0 0 Z " fill="#1F2424" transform="translate(1066,1454)"/>
<path d="M0 0 C2.05078125 0.03255208 4.1015625 0.06510417 6.15234375 0.09765625 C9.20148083 7.46195839 11.87941262 14.91320706 14.40234375 22.47265625 C14.76585937 23.53871094 15.129375 24.60476563 15.50390625 25.703125 C15.84679687 26.72792969 16.1896875 27.75273438 16.54296875 28.80859375 C16.85266602 29.72946777 17.16236328 30.6503418 17.48144531 31.59912109 C18.15234375 34.09765625 18.15234375 34.09765625 18.15234375 38.09765625 C15.84234375 38.09765625 13.53234375 38.09765625 11.15234375 38.09765625 C10.16234375 35.45765625 9.17234375 32.81765625 8.15234375 30.09765625 C1.22234375 29.60265625 1.22234375 29.60265625 -5.84765625 29.09765625 C-6.50765625 32.06765625 -7.16765625 35.03765625 -7.84765625 38.09765625 C-10.15765625 38.09765625 -12.46765625 38.09765625 -14.84765625 38.09765625 C-12.49092765 30.01461332 -9.88368174 22.02252469 -7.22265625 14.03515625 C-6.61164062 12.18374023 -6.61164062 12.18374023 -5.98828125 10.29492188 C-5.59898437 9.12509766 -5.2096875 7.95527344 -4.80859375 6.75 C-4.45587402 5.68773193 -4.1031543 4.62546387 -3.73974609 3.53100586 C-2.49356205 0.13179503 -2.49356205 0.13179503 0 0 Z " fill="#191F1F" transform="translate(966.84765625,1453.90234375)"/>
<path d="M0 0 C2.64 0 5.28 0 8 0 C10.08686347 2.43203512 11.29200674 4.20901349 12.6875 7 C13.39881717 8.31300014 14.11106146 9.62549842 14.82421875 10.9375 C15.54222656 12.278125 16.26023437 13.61875 17 15 C18.65 17.64 20.3 20.28 22 23 C22.33 15.74 22.66 8.48 23 1 C24.65 1 26.3 1 28 1 C28 12.88 28 24.76 28 37 C25.69 37 23.38 37 21 37 C18.77734375 34.5078125 18.77734375 34.5078125 16.9375 31.125 C16.32777344 30.03445313 15.71804688 28.94390625 15.08984375 27.8203125 C14.40019531 26.55960938 13.71054687 25.29890625 13 24 C11.02 20.7 9.04 17.4 7 14 C6.67 21.92 6.34 29.84 6 38 C4.02 38 2.04 38 0 38 C0 25.46 0 12.92 0 0 Z " fill="#151B1B" transform="translate(1003,1454)"/>
<path d="M0 0 C4.45070264 2.18489039 6.91888235 4.49091177 9 9 C9 9.99 9 10.98 9 12 C6.3125 12.3125 6.3125 12.3125 3 12 C1.33333333 10.33333333 -0.33333333 8.66666667 -2 7 C-5.04340127 6.16650049 -5.04340127 6.16650049 -8 7 C-10.64265531 8.66946655 -10.64265531 8.66946655 -12 12 C-12.66418815 18.01090279 -12.69663909 23.49197122 -10 29 C-8.12575284 31.280721 -8.12575284 31.280721 -5.125 31.375 C-1.9266599 31.26525285 -1.9266599 31.26525285 0.3125 29.1875 C2.17631174 27.01952395 2.17631174 27.01952395 3 24 C0.36 24 -2.28 24 -5 24 C-5 22.02 -5 20.04 -5 18 C-0.05 18 4.9 18 10 18 C10 24.6 10 31.2 10 38 C8.68 38 7.36 38 6 38 C5.67 36.68 5.34 35.36 5 34 C4.030625 34.66 3.06125 35.32 2.0625 36 C-2.26641659 38.43118952 -6.12895086 39.11879221 -11 38 C-15.24284151 35.75571704 -18.02182713 32.63377235 -19.9375 28.25 C-22.02976385 21.32842274 -21.88643191 15.23072161 -18.875 8.625 C-14.41960538 0.7318775 -8.79089904 -1.41512033 0 0 Z " fill="#1B2020" transform="translate(926,1454)"/>
<path d="M0 0 C8.25 0 16.5 0 25 0 C25 2.31 25 4.62 25 7 C19.39 7 13.78 7 8 7 C8 9.97 8 12.94 8 16 C12.29 16 16.58 16 21 16 C21 17.98 21 19.96 21 22 C16.71 22 12.42 22 8 22 C8 24.97 8 27.94 8 31 C13.61 31 19.22 31 25 31 C25 33.31 25 35.62 25 38 C16.75 38 8.5 38 0 38 C0 25.46 0 12.92 0 0 Z " fill="#232929" transform="translate(1115,1454)"/>
<path d="M0 0 C3.09905756 1.58154384 4.63082844 2.69860718 5.765625 6.02734375 C5.78625 6.76984375 5.806875 7.51234375 5.828125 8.27734375 C3.015625 8.96484375 3.015625 8.96484375 -0.171875 9.27734375 C-0.8525 8.56578125 -0.8525 8.56578125 -1.546875 7.83984375 C-3.62432761 5.84229316 -4.53724674 6.07007402 -7.359375 6.08984375 C-8.6175 6.15171875 -9.875625 6.21359375 -11.171875 6.27734375 C-11.501875 8.25734375 -11.831875 10.23734375 -12.171875 12.27734375 C-11.29144531 12.45910156 -10.41101563 12.64085937 -9.50390625 12.828125 C-8.34246094 13.07949219 -7.18101562 13.33085938 -5.984375 13.58984375 C-4.83582031 13.83347656 -3.68726563 14.07710937 -2.50390625 14.328125 C1.40243703 15.44095198 4.65814275 16.71736741 7.140625 20.02734375 C8.44068899 24.28209863 8.38773835 27.9094 6.703125 32.02734375 C3.61713689 35.73052948 0.82213811 37.05024781 -3.984375 37.59765625 C-10.61543975 37.84632118 -14.85717017 37.3211409 -20.171875 33.27734375 C-22.171875 30.27734375 -22.171875 30.27734375 -22.171875 27.27734375 C-18.921875 26.52734375 -18.921875 26.52734375 -15.171875 26.27734375 C-13.83854167 27.61067708 -12.50520833 28.94401042 -11.171875 30.27734375 C-7.71682389 30.81741186 -4.35310612 30.86795931 -1.171875 29.27734375 C-1.171875 27.62734375 -1.171875 25.97734375 -1.171875 24.27734375 C-2.72648438 23.82294922 -2.72648438 23.82294922 -4.3125 23.359375 C-5.6825681 22.93709374 -7.05234487 22.51386648 -8.421875 22.08984375 C-9.10378906 21.89326172 -9.78570313 21.69667969 -10.48828125 21.49414062 C-15.14153493 20.02588097 -17.6489528 18.47584307 -20.171875 14.27734375 C-20.88264432 11.51788637 -20.73602079 9.06422394 -20.171875 6.27734375 C-15.65053291 -1.1505754 -8.07094016 -2.68547469 0 0 Z " fill="#181E1E" transform="translate(790.171875,1454.72265625)"/>
<path d="M0 0 C7.92 0 15.84 0 24 0 C24 1.98 24 3.96 24 6 C18.39 6 12.78 6 7 6 C7 9.3 7 12.6 7 16 C11.62 16 16.24 16 21 16 C21 17.98 21 19.96 21 22 C16.38 22 11.76 22 7 22 C7 24.97 7 27.94 7 31 C12.61 31 18.22 31 24 31 C24 33.31 24 35.62 24 38 C16.08 38 8.16 38 0 38 C0 25.46 0 12.92 0 0 Z " fill="#1A2020" transform="translate(1208,1454)"/>
<path d="M0 0 C2.31 0 4.62 0 7 0 C7 9.9 7 19.8 7 30 C12.28 30 17.56 30 23 30 C23 32.31 23 34.62 23 37 C15.41 37 7.82 37 0 37 C0 24.79 0 12.58 0 0 Z " fill="#141A1A" transform="translate(817,1455)"/>
<path d="M0 0 C3.15411723 2.38689953 4.29813753 4.18320505 5 8 C5.14132787 9.97587236 5.22002734 11.95680649 5.25 13.9375 C5.27578125 14.95714844 5.3015625 15.97679687 5.328125 17.02734375 C4.95299808 20.42581503 4.0156503 22.2651735 2 25 C-0.84083641 26.42041821 -2.85477278 26.31452272 -6 26 C-8.84780619 23.76793569 -9.84997666 22.45007001 -11 19 C-11.14554833 16.8783532 -11.22080412 14.75143294 -11.25 12.625 C-11.27578125 11.50351563 -11.3015625 10.38203125 -11.328125 9.2265625 C-10.96680751 5.67360717 -10.12554458 3.83749883 -8 1 C-5.15916359 -0.42041821 -3.14522722 -0.31452272 0 0 Z " fill="#FBFBFB" transform="translate(875,1460)"/>
<path d="M0 0 C10.625 -0.25 10.625 -0.25 14 2 C14.1875 5.625 14.1875 5.625 14 9 C10.78817851 10.90608098 8.46117397 11.22266247 4.75 11.125 C3.1825 11.08375 1.615 11.0425 0 11 C0 7.37 0 3.74 0 0 Z " fill="#F9FAFA" transform="translate(1166,1460)"/>
<path d="M0 0 C2.00993705 3.01490557 2.72623341 5.2149927 3.625 8.6875 C3.88539063 9.68136719 4.14578125 10.67523437 4.4140625 11.69921875 C4.60742188 12.45847656 4.80078125 13.21773437 5 14 C2.03 14 -0.94 14 -4 14 C-3.46148032 8.72250715 -2.22656164 4.74354436 0 0 Z " fill="#F6F7F7" transform="translate(968,1463)"/>
<path d="M0 0 C11.70954775 -0.13339991 23.31514365 0.23467608 35 1 C35 1.33 35 1.66 35 2 C30.93767164 2.17102625 26.87511713 2.33598818 22.8125 2.5 C21.11577148 2.57154297 21.11577148 2.57154297 19.38476562 2.64453125 C11.58534972 2.95561906 3.80529668 3.05818215 -4 3 C-2.68 2.67 -1.36 2.34 0 2 C0 1.34 0 0.68 0 0 Z " fill="#F8F495" transform="translate(1043,1158)"/>
</svg>
