<?xml version="1.0" encoding="UTF-8"?>
<svg version="1.1" xmlns="http://www.w3.org/2000/svg" width="5000" height="5000">
<path d="M0 0 C1650 0 3300 0 5000 0 C5000 1650 5000 3300 5000 5000 C3350 5000 1700 5000 0 5000 C0 3350 0 1700 0 0 Z " fill="#1D1C1D" transform="translate(0,0)"/>
<path d="M0 0 C1349.07212016 0 1349.07212016 0 1392.1875 2.3125 C1394.01586395 2.40812225 1394.01586395 2.40812225 1395.88116455 2.50567627 C1494.33773322 7.68876708 1592.4597607 20.67345751 1862 101 C1863.10021484 101.45439453 1864.20042969 101.90878906 1865.33398438 102.37695312 C1872.91760939 105.51983886 1880.46878112 108.73362334 1888 112 C1889.09473633 112.47453613 1890.18947266 112.94907227 1891.31738281 113.43798828 C1931.7629142 131.06494364 1971.43503588 150.7706679 2009.32275391 173.40185547 C2011.89076465 174.93479349 2014.46583589 176.45511817 2017.04296875 177.97265625 C2037.18401688 189.88245867 2056.8160291 202.60661201 2076 216 C2076.72622559 216.5048291 2077.45245117 217.0096582 2078.20068359 217.52978516 C2088.64133373 224.79416425 2098.8742448 232.30394444 2109 240 C2109.71752441 240.54333984 2110.43504883 241.08667969 2111.17431641 241.64648438 C2119.92262363 248.2726489 2128.55465642 254.99049536 2137 262 C2138.77043835 263.43798644 2140.54128196 264.87547404 2142.3125 266.3125 C2151.67240809 273.97425334 2160.82849584 281.87077823 2169.78515625 290 C2171.77412502 291.79603529 2173.78563194 293.55953303 2175.8125 295.3125 C2188.37125735 306.30877516 2200.18302633 318.02455346 2211.96777344 329.83740234 C2214.40143703 332.27680257 2216.83962109 334.71162769 2219.27912712 337.14518356 C2221.64425972 339.5058058 2224.00554575 341.87026038 2226.3671875 344.234375 C2227.2308493 345.09601257 2228.09451111 345.95765015 2228.98434448 346.84539795 C2233.3201444 351.19789762 2237.51923191 355.6094466 2241.51519775 360.27708435 C2243.88801133 363.03041911 2246.38882004 365.6619687 2248.875 368.3125 C2253.31465293 373.08410895 2257.51659141 377.9816799 2261.59765625 383.06640625 C2264.44961575 386.54904297 2267.40842125 389.92761293 2270.375 393.3125 C2275.98526322 399.74079148 2281.31468431 406.33881663 2286.52392578 413.09423828 C2288.11871479 415.15327285 2289.72812291 417.2002889 2291.33984375 419.24609375 C2299.50854338 429.63651578 2307.35580083 440.21879456 2315 451 C2315.5671875 451.79664063 2316.134375 452.59328125 2316.71875 453.4140625 C2324.91958722 464.94648984 2332.82039948 476.64237353 2340.44287109 488.56494141 C2341.95253182 490.92576864 2343.47019268 493.28130555 2344.98828125 495.63671875 C2353.04534946 508.20089279 2360.57619801 521.05376465 2368 534 C2368.54849609 534.94987793 2369.09699219 535.89975586 2369.66210938 536.87841797 C2400.63732494 590.62245238 2425.94267631 647.29952813 2446.26293945 705.87670898 C2446.98290181 707.95074429 2447.70696361 710.0233112 2448.43164062 712.09570312 C2478.06232815 797.07678299 2495.37633588 886.3172087 2504.1875 984.9375 C2504.30585709 986.27864365 2504.30585709 986.27864365 2504.42660522 987.6468811 C2507.54512014 1023.42945407 2508.33896171 1059.27843313 2508.26074219 1095.17919922 C2508.24934886 1100.44525507 2508.25614567 1105.7111086 2508.26761913 1110.97715759 C2508.33422814 1147.05855867 2507.20584041 1183.03609839 2504.1875 1219 C2504.10351959 1220.02209564 2504.01953918 1221.04419128 2503.93301392 1222.09725952 C2496.65282091 1310.24864913 2480.13716387 1397.21822267 2441 1515 C2440.58959473 1516.08297363 2440.17918945 1517.16594727 2439.75634766 1518.28173828 C2421.24953684 1566.84733764 2399.05390737 1614.02590761 2373 1659 C2372.02957764 1660.68561035 2372.02957764 1660.68561035 2371.03955078 1662.40527344 C2348.00022143 1702.41596062 2322.19823167 1740.45121904 2294 1777 C2293.48695313 1777.66515625 2292.97390625 1778.3303125 2292.4453125 1779.015625 C2278.24388629 1797.37547988 2263.32191806 1815.17658861 2247.5625 1832.21875 C2245.09800188 1834.89363211 2242.67039654 1837.59773091 2240.25 1840.3125 C2237.18879991 1843.72775348 2234.03586659 1846.99754669 2230.76098633 1850.20654297 C2229.10819748 1851.88980748 2227.58802529 1853.62419415 2226.06640625 1855.42578125 C2221.36776742 1860.82648702 2216.29920645 1865.85056602 2211.23022461 1870.90014648 C2209.56573723 1872.5592732 2207.90666553 1874.22368051 2206.24804688 1875.88867188 C2201.24418334 1880.89566852 2196.21324126 1885.81954233 2190.82641602 1890.41870117 C2187.50892715 1893.29096095 2184.3656184 1896.35055403 2181.1875 1899.375 C2175.810985 1904.45735538 2170.3612441 1909.28394154 2164.57421875 1913.89453125 C2161.78969652 1916.17200846 2159.14586197 1918.56312008 2156.5 1921 C2151.17019892 1925.89379479 2145.63164422 1930.46020517 2140 1935 C2138.76994984 1936.00934094 2137.5408379 1937.01982598 2136.3125 1938.03125 C2127.75463607 1945.06281667 2119.04826677 1951.84312668 2110.13769531 1958.42138672 C2107.87761041 1960.09038043 2105.62231801 1961.76572549 2103.3671875 1963.44140625 C2098.59356962 1966.98217736 2093.80308872 1970.49932108 2089 1974 C2088.02667725 1974.70962891 2088.02667725 1974.70962891 2087.03369141 1975.43359375 C2018.79462679 2024.93157492 1944.30682062 2065.6166337 1222.00786029 2219.31664422 C1215.59625943 2219.3191011 1209.18467565 2219.33296517 1202.7730879 2219.34535714 C1189.78393621 2219.37016718 1176.79478867 2219.38652716 1163.80561829 2219.39730835 C1146.24266403 2219.41191435 1128.67976277 2219.43878838 1111.11682129 2219.4675293 C1068.97372851 2219.53047599 1026.83061216 2219.57674562 984.6875 2219.625 C890.410625 2219.74875 796.13375 2219.8725 699 2220 C698.67 2533.5 698.34 2847 698 3170 C467.66 3170 237.32 3170 0 3170 C0 2123.9 0 1077.8 0 0 Z " fill="#FB7F00" transform="translate(1246,915)"/>
<path d="M0 0 C1.9071151 0.12439323 3.81466134 0.24212617 5.722229 0.359375 C31.06944212 1.93378134 56.20897097 5.26974419 81.28619385 9.1953125 C82.08343872 9.31910278 82.88068359 9.44289307 83.7020874 9.57043457 C92.13511049 10.88748013 100.46233317 12.35739366 108.76519775 14.3581543 C112.43822903 15.22802504 116.12607245 16.01308823 119.8213501 16.78125 C120.49016205 16.92074066 121.158974 17.06023132 121.84805298 17.20394897 C123.22498576 17.49112335 124.60194951 17.77814924 125.97894287 18.06503296 C142.41524006 21.49829291 158.80076203 25.02097056 174.81744385 30.1171875 C177.75672485 31.04463054 180.70654346 31.92433855 183.66607666 32.78466797 C187.46000799 33.88755498 191.24827657 35.00946979 195.03619385 36.1328125 C196.0294165 36.42704102 197.02263916 36.72126953 198.04595947 37.02441406 C210.30465422 40.67380744 222.40624008 44.44650339 234.2666626 49.2421875 C238.92872175 51.1194193 243.64930845 52.8173788 248.37652588 54.52246094 C292.64499575 70.56130223 335.75688932 91.38966524 376.18658447 115.44921875 C378.86858853 117.03378866 381.56516464 118.58862266 384.27056885 120.1328125 C407.34425148 133.38203486 429.51867363 148.49293625 451.03619385 164.1328125 C451.7843335 164.67276855 452.53247314 165.21272461 453.30328369 165.76904297 C463.92976981 173.44768954 474.25418595 181.40554649 484.35992432 189.75634766 C486.60382696 191.59892312 488.88140383 193.39742931 491.16119385 195.1953125 C496.35417371 199.33753891 501.38036335 203.66708401 506.4072876 208.0078125 C508.74116994 210.02306971 511.08630134 212.02327251 513.4463501 214.0078125 C522.21875744 221.40487409 530.57521548 229.19090392 538.88824463 237.09814453 C541.68231022 239.74485318 544.49919166 242.3665558 547.31622314 244.98876953 C556.69959426 253.73305699 566.0722162 262.49551837 574.39556885 272.2734375 C576.19767174 274.31582078 578.09558332 276.22182961 580.03619385 278.1328125 C583.22880697 281.2826128 586.20780664 284.54500739 589.12994385 287.9453125 C591.34565033 290.48792649 593.62717977 292.96391448 595.91119385 295.4453125 C600.00179945 299.93078802 603.88437228 304.53861794 607.6963501 309.26171875 C609.77339199 311.81034277 611.88567855 314.31986814 614.02154541 316.81884766 C620.23997724 324.09699116 626.18555436 331.55709868 632.03619385 339.1328125 C632.64124756 339.91188965 633.24630127 340.6909668 633.86968994 341.49365234 C642.83855602 353.05506381 651.40766204 364.79424738 659.55865479 376.9453125 C660.95323761 379.0099956 662.36756019 381.05880135 663.79400635 383.1015625 C691.69580356 423.06626205 716.63929431 466.31574259 736.11138916 511.04101562 C737.48313642 514.14374279 738.94918742 517.19652205 740.41119385 520.2578125 C750.20075909 541.07070428 758.3272975 562.48538978 766.03619385 584.1328125 C766.39761475 585.14263184 766.75903564 586.15245117 767.13140869 587.19287109 C770.6739658 597.10483972 774.0548191 607.03539924 777.03619385 617.1328125 C777.40099854 618.32777344 777.76580322 619.52273438 778.1416626 620.75390625 C784.73739273 642.51438709 790.20636355 664.67667401 795.08306885 686.8828125 C795.79693821 690.11756603 796.60322451 693.3111737 797.47369385 696.5078125 C799.04250792 702.68006583 800.02508645 708.89978855 800.94610596 715.19482422 C801.05962402 715.96197754 801.17314209 716.72913086 801.2901001 717.51953125 C801.38621582 718.19201904 801.48233154 718.86450684 801.58135986 719.55737305 C801.98317903 721.83262283 802.47374328 724.05547248 802.99517822 726.30541992 C804.08938379 731.16966927 804.79928582 736.04233036 805.4385376 740.984375 C805.62202507 742.37033875 805.62202507 742.37033875 805.80921936 743.78430176 C806.20278845 746.77479538 806.5891691 749.76614319 806.97369385 752.7578125 C807.17303528 754.3007901 807.17303528 754.3007901 807.37640381 755.87493896 C809.61648167 773.26914021 811.65993554 790.64583084 813.03619385 808.1328125 C813.19063965 809.98205322 813.19063965 809.98205322 813.34820557 811.86865234 C815.116638 833.83018056 815.22005119 855.80115912 815.22369385 877.8203125 C815.22447748 878.88472754 815.22447748 878.88472754 815.22527695 879.9706459 C815.24317185 906.41176535 814.51234827 932.61925527 811.93438721 958.94873047 C811.59485204 962.42211345 811.26695171 965.89645982 810.94049072 969.37109375 C809.92692837 980.01695918 808.84492875 990.58938276 807.03619385 1001.1328125 C806.79446781 1002.73236276 806.55723825 1004.33260127 806.32525635 1005.93359375 C803.55104881 1024.83210737 800.56358991 1043.59111953 796.1807251 1062.19140625 C795.23886298 1066.1975406 794.41831422 1070.21209565 793.66119385 1074.2578125 C789.91084464 1093.34666858 784.68053885 1112.12464521 778.81646729 1130.66113281 C778.11094451 1132.8960241 777.41778958 1135.13414071 776.73150635 1137.375 C772.26721567 1151.91459615 767.38756118 1166.32402527 762.41119385 1180.6953125 C762.14645264 1181.46713867 761.88171143 1182.23896484 761.60894775 1183.03417969 C759.73251956 1188.41014074 757.61047861 1193.65728742 755.39752197 1198.90307617 C753.97777996 1202.27139882 752.58559334 1205.65024254 751.1963501 1209.03125 C737.26590564 1242.74134898 721.86045178 1275.75826541 703.62115479 1307.37304688 C702.0898019 1310.03946909 700.57901858 1312.7163766 699.07525635 1315.3984375 C684.31120084 1341.66434815 667.76083066 1366.7775151 650.03619385 1391.1328125 C649.25792236 1392.20861572 649.25792236 1392.20861572 648.46392822 1393.30615234 C641.28135028 1403.22465458 633.90683645 1412.91713231 626.1182251 1422.3671875 C623.18898537 1425.92496855 620.35805415 1429.55224877 617.53619385 1433.1953125 C609.34500802 1443.71227959 600.47443654 1453.66723077 591.45025635 1463.47265625 C589.49890069 1465.62293651 587.58247371 1467.79395798 585.67681885 1469.984375 C575.29506317 1481.87405637 564.18063602 1493.08861036 553.03619385 1504.2578125 C552.50012512 1504.79646942 551.9640564 1505.33512634 551.41174316 1505.8901062 C546.03615111 1511.28618121 540.64438785 1516.60994419 534.85113525 1521.56298828 C531.7142531 1524.27621834 528.73328638 1527.15520736 525.72369385 1530.0078125 C520.49670725 1534.92775023 515.17756523 1539.58655932 509.56744385 1544.06640625 C507.03481232 1546.13394032 504.62888224 1548.29394591 502.22369385 1550.5078125 C497.25680849 1555.02814823 492.03119595 1559.14221743 486.7276001 1563.25390625 C484.27506076 1565.15668261 481.84709739 1567.08482732 479.4385376 1569.04296875 C470.62806226 1576.20370213 461.5590427 1582.91456931 452.31256104 1589.50048828 C450.09622248 1591.08976752 447.89595266 1592.6987606 445.70025635 1594.31640625 C393.69119913 1632.54353228 335.78814608 1664.02584573 276.22564697 1688.80566406 C273.2154134 1690.05823829 270.21138436 1691.32469996 267.20806885 1692.59375 C255.97195082 1697.3043638 244.61294452 1701.49376581 233.07525635 1705.40625 C228.69303747 1706.89370546 224.36075105 1708.48657837 220.03619385 1710.1328125 C212.12032912 1713.07589041 204.20421716 1715.73556849 196.0635376 1717.984375 C193.07856284 1718.81953363 190.12094919 1719.72330478 187.1651001 1720.65625 C144.80668931 1733.99280509 99.5012843 1744.64911425 55.20806885 1748.7109375 C51.56371242 1749.04656475 47.9502494 1749.54884783 44.32525635 1750.05078125 C35.68031034 1751.21789167 27.01661838 1752.10652209 18.33355713 1752.93774414 C15.69853692 1753.19171329 13.06468827 1753.45602651 10.4307251 1753.72070312 C-14.09355534 1756.12374502 -38.65539026 1756.34073632 -63.27630615 1756.3203125 C-64.0005352 1756.32004562 -64.72476425 1756.31977875 -65.47093964 1756.31950378 C-88.02207301 1756.30909971 -110.48420814 1756.0725879 -132.96380615 1754.1328125 C-133.71619568 1754.06964844 -134.46858521 1754.00648437 -135.24377441 1753.94140625 C-155.85489336 1752.20738836 -176.35346908 1749.79824763 -196.83880615 1746.9453125 C-197.79111115 1746.81298218 -198.74341614 1746.68065186 -199.72457886 1746.54431152 C-202.4066727 1746.16896356 -205.08777019 1745.78734578 -207.76849365 1745.40234375 C-208.57168533 1745.28895157 -209.37487701 1745.17555939 -210.20240784 1745.05873108 C-215.72929699 1744.25006708 -215.72929699 1744.25006708 -217.96380615 1743.1328125 C-219.96684467 1742.83818567 -221.97070858 1742.5482927 -223.97796631 1742.28393555 C-236.10839872 1740.67204536 -247.82748121 1737.88890337 -259.68890381 1734.93115234 C-264.10098956 1733.85559543 -268.53089596 1732.86728459 -272.96258545 1731.8762207 C-284.30691324 1729.33120648 -295.40029424 1726.34813145 -306.49554443 1722.88720703 C-310.8819969 1721.54654055 -315.29932875 1720.3148789 -319.71380615 1719.0703125 C-341.15417881 1712.98882037 -341.15417881 1712.98882037 -351.50506592 1709.05053711 C-354.61593466 1707.88940558 -357.74455364 1706.78206952 -360.8739624 1705.671875 C-385.97062924 1696.73763731 -410.66381846 1686.99059291 -434.61029053 1675.27490234 C-437.20350871 1674.01649211 -439.80883147 1672.7858546 -442.41693115 1671.55859375 C-463.51958616 1661.61073726 -483.96362707 1650.78187493 -504.02484131 1638.87207031 C-506.89680312 1637.1724644 -509.77807515 1635.48994703 -512.6630249 1633.8125 C-525.01144515 1626.61474616 -537.08018504 1619.07406435 -548.96380615 1611.1328125 C-549.85599854 1610.53710449 -550.74819092 1609.94139648 -551.66741943 1609.32763672 C-564.69074847 1600.60331525 -577.44436246 1591.56551449 -589.96380615 1582.1328125 C-590.56483154 1581.68099609 -591.16585693 1581.22917969 -591.78509521 1580.76367188 C-600.41001102 1574.26127444 -608.78714015 1567.46265011 -617.14349365 1560.62109375 C-618.7364248 1559.31871871 -620.33410135 1558.02215218 -621.93255615 1556.7265625 C-632.39921271 1548.23010012 -642.61815539 1539.48321639 -652.47967529 1530.29077148 C-655.36740114 1527.59915605 -658.28280671 1524.95617167 -661.27630615 1522.3828125 C-664.59235383 1519.51863715 -667.67088711 1516.47190722 -670.71380615 1513.3203125 C-672.6622705 1511.42597217 -674.65362098 1509.65331041 -676.7098999 1507.87890625 C-680.99487608 1504.15547129 -685.02515815 1500.21974556 -689.02630615 1496.1953125 C-689.69468506 1495.53080078 -690.36306396 1494.86628906 -691.05169678 1494.18164062 C-695.00285024 1490.22280756 -698.74934546 1486.14594229 -702.40301514 1481.91186523 C-704.32910571 1479.71642929 -706.36804449 1477.66601411 -708.46380615 1475.6328125 C-711.85649014 1472.28024471 -715.05481299 1468.83805568 -718.15911865 1465.21875 C-720.18031891 1462.88255749 -722.25759454 1460.60316399 -724.33880615 1458.3203125 C-728.23744012 1454.00020459 -731.93884473 1449.55209869 -735.59661865 1445.02734375 C-737.64757912 1442.51948615 -739.73777418 1440.05219814 -741.85028076 1437.59619141 C-747.69469323 1430.78800027 -753.16544403 1423.73710823 -758.5770874 1416.58203125 C-760.83494941 1413.60060476 -763.12342754 1410.64749784 -765.4442749 1407.71484375 C-773.09651222 1398.03967456 -780.26773808 1388.15189426 -787.11810303 1377.89404297 C-788.80138024 1375.37580683 -790.49294145 1372.86331246 -792.18716431 1370.35243225 C-806.29610761 1349.4319678 -819.68187484 1328.18545526 -831.96380615 1306.1328125 C-832.46315674 1305.23852539 -832.96250732 1304.34423828 -833.47698975 1303.42285156 C-856.6974858 1261.66598122 -876.07162038 1218.41753769 -892.14007568 1173.41772461 C-893.14133909 1170.64036119 -894.17917698 1167.87774399 -895.21990967 1165.11499023 C-900.63335387 1150.69039113 -905.07926839 1136.10716883 -909.10809326 1121.23925781 C-910.00482304 1117.98391126 -910.94350016 1114.74246492 -911.88568115 1111.5 C-914.07560628 1103.86282645 -916.02919754 1096.1740985 -917.94598389 1088.46484375 C-918.52588083 1086.13452167 -919.11081248 1083.80550358 -919.69622803 1081.4765625 C-922.63154435 1069.74747116 -925.38214705 1057.99714668 -927.40130615 1046.0703125 C-928.19101406 1041.44358461 -929.01261966 1036.82861784 -929.9364624 1032.2265625 C-932.39516285 1019.94247155 -934.17623471 1007.67218655 -935.60491943 995.22753906 C-935.95941458 992.17068163 -936.33243265 989.11659787 -936.7098999 986.0625 C-944.74990827 920.14483918 -944.9009528 853.86871907 -939.02630615 787.7578125 C-938.94698853 786.85459259 -938.8676709 785.95137268 -938.78594971 785.02078247 C-937.74645266 773.35773793 -936.24008915 761.84915633 -934.31741333 750.30029297 C-933.78214992 747.01932737 -933.3055919 743.73172283 -932.83099365 740.44140625 C-932.66470459 739.29349609 -932.49841553 738.14558594 -932.3270874 736.96289062 C-931.99204429 734.63501107 -931.65880529 732.30687135 -931.3270874 729.97851562 C-931.16337646 728.85251953 -930.99966553 727.72652344 -930.83099365 726.56640625 C-930.68774658 725.56665771 -930.54449951 724.56690918 -930.39691162 723.53686523 C-929.96380615 721.1328125 -929.96380615 721.1328125 -928.96380615 719.1328125 C-928.62369377 717.32334937 -928.32085912 715.50679603 -928.0380249 713.6875 C-927.09460746 707.84265938 -925.99201785 702.05156436 -924.77630615 696.2578125 C-924.5648999 695.24895996 -924.35349365 694.24010742 -924.13568115 693.20068359 C-920.00253186 673.70698016 -915.61520565 654.24809913 -909.96380615 635.1328125 C-909.744021 634.38016113 -909.52423584 633.62750977 -909.29779053 632.85205078 C-906.26114827 622.46545116 -903.04935106 612.13465613 -899.77630615 601.8203125 C-899.4433252 600.76448975 -899.11034424 599.70866699 -898.76727295 598.62084961 C-896.10872128 590.30444031 -896.10872128 590.30444031 -894.40911865 586.4375 C-892.70800834 582.54793426 -891.38011132 578.59055238 -890.02630615 574.5703125 C-886.92005306 565.52463993 -883.46043645 556.63230583 -879.90130615 547.7578125 C-879.65204376 547.13486298 -879.40278137 546.51191345 -879.14596558 545.87008667 C-871.09458514 525.77853511 -862.11586435 506.24979121 -852.44012451 486.90014648 C-851.15913229 484.33597811 -849.88459521 481.76866891 -848.61029053 479.20117188 C-843.03004739 468.00166245 -837.15931311 457.00376617 -830.96380615 446.1328125 C-830.59925323 445.49294403 -830.23470032 444.85307556 -829.85910034 444.19381714 C-827.48208421 440.03340884 -825.07544946 435.89091288 -822.65130615 431.7578125 C-822.29207062 431.14438995 -821.93283508 430.53096741 -821.56271362 429.8989563 C-815.02548086 418.75502714 -808.1436629 407.87497267 -800.96380615 397.1328125 C-800.24064209 396.03582031 -799.51747803 394.93882812 -798.7723999 393.80859375 C-796.85329038 390.90472903 -794.91385176 388.0159854 -792.96380615 385.1328125 C-792.57579834 384.55708496 -792.18779053 383.98135742 -791.7880249 383.38818359 C-777.67636634 362.48829299 -762.41900349 342.45519284 -746.44769287 322.94873047 C-745.15747421 321.36981529 -743.87445027 319.78502623 -742.5927124 318.19921875 C-733.06093282 306.42878268 -723.06069979 295.08437076 -712.71405029 284.02661133 C-711.39979978 282.60456624 -710.09913404 281.16994666 -708.80535889 279.72924805 C-700.74656959 270.80007544 -692.28010529 262.29685813 -683.76531982 253.80395508 C-681.26716648 251.31119255 -678.77444417 248.81308775 -676.28216553 246.31445312 C-674.67246024 244.70540822 -673.062445 243.09667332 -671.4520874 241.48828125 C-670.71855545 240.75272507 -669.9850235 240.01716888 -669.22926331 239.25932312 C-665.18805183 235.23618925 -661.05815511 231.37788247 -656.73162842 227.66252136 C-653.96708136 225.27033963 -651.31730729 222.75847697 -648.65130615 220.2578125 C-643.85731475 215.79776894 -638.93869619 211.56971697 -633.83099365 207.46875 C-630.54800918 204.79405693 -627.35140912 202.03047125 -624.15130615 199.2578125 C-617.91870028 193.88563418 -611.54222042 188.73967527 -605.02337646 183.71972656 C-603.5492021 182.58386438 -602.07747103 181.44482838 -600.60736084 180.30371094 C-589.80115946 171.92023735 -578.86237693 163.8535371 -567.5145874 156.21875 C-563.79804324 153.71578739 -560.14574364 151.13506722 -556.50750732 148.52001953 C-547.96011844 142.3831786 -539.14539315 136.84568253 -530.12200928 131.43994141 C-527.41832238 129.80243692 -524.74943031 128.11369258 -522.08123779 126.41918945 C-499.34003719 111.99772979 -475.47241699 99.2984723 -451.40130615 87.2578125 C-450.48201828 86.79742081 -450.48201828 86.79742081 -449.54415894 86.32772827 C-435.66733035 79.39059764 -421.65742536 72.86235939 -407.33880615 66.8828125 C-406.68238129 66.60789978 -406.02595642 66.33298706 -405.34963989 66.04974365 C-367.5945287 50.26481388 -328.96812026 37.06075045 -289.37982178 26.70288086 C-286.96416941 26.07040761 -284.54987825 25.43292477 -282.13568115 24.79492188 C-266.85307825 20.77057522 -251.63294505 17.06545036 -236.02630615 14.5078125 C-233.57948053 14.1002232 -231.13286123 13.69139317 -228.6864624 13.28125 C-226.9539624 12.99084839 -226.9539624 12.99084839 -225.1864624 12.69458008 C-222.39380478 12.20776908 -219.61915058 11.67622416 -216.8427124 11.10546875 C-146.22237796 -3.34532424 -71.67490764 -4.71408145 0 0 Z " fill="#121413" transform="translate(2530.9638061523438,1137.8671875)"/>
<path d="M0 0 C1.9071151 0.12439323 3.81466134 0.24212617 5.722229 0.359375 C31.06944212 1.93378134 56.20897097 5.26974419 81.28619385 9.1953125 C82.08343872 9.31910278 82.88068359 9.44289307 83.7020874 9.57043457 C92.13511049 10.88748013 100.46233317 12.35739366 108.76519775 14.3581543 C112.43822903 15.22802504 116.12607245 16.01308823 119.8213501 16.78125 C120.49016205 16.92074066 121.158974 17.06023132 121.84805298 17.20394897 C123.22498576 17.49112335 124.60194951 17.77814924 125.97894287 18.06503296 C142.41524006 21.49829291 158.80076203 25.02097056 174.81744385 30.1171875 C177.75672485 31.04463054 180.70654346 31.92433855 183.66607666 32.78466797 C187.46000799 33.88755498 191.24827657 35.00946979 195.03619385 36.1328125 C196.0294165 36.42704102 197.02263916 36.72126953 198.04595947 37.02441406 C210.30465422 40.67380744 222.40624008 44.44650339 234.2666626 49.2421875 C238.92872175 51.1194193 243.64930845 52.8173788 248.37652588 54.52246094 C292.64499575 70.56130223 335.75688932 91.38966524 376.18658447 115.44921875 C378.86858853 117.03378866 381.56516464 118.58862266 384.27056885 120.1328125 C407.34425148 133.38203486 429.51867363 148.49293625 451.03619385 164.1328125 C451.7843335 164.67276855 452.53247314 165.21272461 453.30328369 165.76904297 C463.92976981 173.44768954 474.25418595 181.40554649 484.35992432 189.75634766 C486.60382696 191.59892312 488.88140383 193.39742931 491.16119385 195.1953125 C496.35417371 199.33753891 501.38036335 203.66708401 506.4072876 208.0078125 C508.74116994 210.02306971 511.08630134 212.02327251 513.4463501 214.0078125 C522.21875744 221.40487409 530.57521548 229.19090392 538.88824463 237.09814453 C541.68231022 239.74485318 544.49919166 242.3665558 547.31622314 244.98876953 C556.69959426 253.73305699 566.0722162 262.49551837 574.39556885 272.2734375 C576.19767174 274.31582078 578.09558332 276.22182961 580.03619385 278.1328125 C583.22880697 281.2826128 586.20780664 284.54500739 589.12994385 287.9453125 C591.34565033 290.48792649 593.62717977 292.96391448 595.91119385 295.4453125 C600.00179945 299.93078802 603.88437228 304.53861794 607.6963501 309.26171875 C609.77339199 311.81034277 611.88567855 314.31986814 614.02154541 316.81884766 C620.23997724 324.09699116 626.18555436 331.55709868 632.03619385 339.1328125 C632.64124756 339.91188965 633.24630127 340.6909668 633.86968994 341.49365234 C642.83855602 353.05506381 651.40766204 364.79424738 659.55865479 376.9453125 C660.95323761 379.0099956 662.36756019 381.05880135 663.79400635 383.1015625 C691.69580356 423.06626205 716.63929431 466.31574259 736.11138916 511.04101562 C737.48313642 514.14374279 738.94918742 517.19652205 740.41119385 520.2578125 C750.20075909 541.07070428 758.3272975 562.48538978 766.03619385 584.1328125 C766.39761475 585.14263184 766.75903564 586.15245117 767.13140869 587.19287109 C770.6739658 597.10483972 774.0548191 607.03539924 777.03619385 617.1328125 C777.40099854 618.32777344 777.76580322 619.52273438 778.1416626 620.75390625 C784.73739273 642.51438709 790.20636355 664.67667401 795.08306885 686.8828125 C795.79693821 690.11756603 796.60322451 693.3111737 797.47369385 696.5078125 C799.04250792 702.68006583 800.02508645 708.89978855 800.94610596 715.19482422 C801.05962402 715.96197754 801.17314209 716.72913086 801.2901001 717.51953125 C801.38621582 718.19201904 801.48233154 718.86450684 801.58135986 719.55737305 C801.98317903 721.83262283 802.47374328 724.05547248 802.99517822 726.30541992 C804.08938379 731.16966927 804.79928582 736.04233036 805.4385376 740.984375 C805.62202507 742.37033875 805.62202507 742.37033875 805.80921936 743.78430176 C806.20278845 746.77479538 806.5891691 749.76614319 806.97369385 752.7578125 C807.17303528 754.3007901 807.17303528 754.3007901 807.37640381 755.87493896 C809.61648167 773.26914021 811.65993554 790.64583084 813.03619385 808.1328125 C813.19063965 809.98205322 813.19063965 809.98205322 813.34820557 811.86865234 C815.116638 833.83018056 815.22005119 855.80115912 815.22369385 877.8203125 C815.22447748 878.88472754 815.22447748 878.88472754 815.22527695 879.9706459 C815.24317185 906.41176535 814.51234827 932.61925527 811.93438721 958.94873047 C811.59485204 962.42211345 811.26695171 965.89645982 810.94049072 969.37109375 C809.92692837 980.01695918 808.84492875 990.58938276 807.03619385 1001.1328125 C806.79446781 1002.73236276 806.55723825 1004.33260127 806.32525635 1005.93359375 C803.55104881 1024.83210737 800.56358991 1043.59111953 796.1807251 1062.19140625 C795.23886298 1066.1975406 794.41831422 1070.21209565 793.66119385 1074.2578125 C789.91084464 1093.34666858 784.68053885 1112.12464521 778.81646729 1130.66113281 C778.11094451 1132.8960241 777.41778958 1135.13414071 776.73150635 1137.375 C772.26721567 1151.91459615 767.38756118 1166.32402527 762.41119385 1180.6953125 C762.14645264 1181.46713867 761.88171143 1182.23896484 761.60894775 1183.03417969 C759.73251956 1188.41014074 757.61047861 1193.65728742 755.39752197 1198.90307617 C753.97777996 1202.27139882 752.58559334 1205.65024254 751.1963501 1209.03125 C737.26590564 1242.74134898 721.86045178 1275.75826541 703.62115479 1307.37304688 C702.0898019 1310.03946909 700.57901858 1312.7163766 699.07525635 1315.3984375 C684.31120084 1341.66434815 667.76083066 1366.7775151 650.03619385 1391.1328125 C649.25792236 1392.20861572 649.25792236 1392.20861572 648.46392822 1393.30615234 C641.28135028 1403.22465458 633.90683645 1412.91713231 626.1182251 1422.3671875 C623.18898537 1425.92496855 620.35805415 1429.55224877 617.53619385 1433.1953125 C609.34500802 1443.71227959 600.47443654 1453.66723077 591.45025635 1463.47265625 C589.49890069 1465.62293651 587.58247371 1467.79395798 585.67681885 1469.984375 C575.29506317 1481.87405637 564.18063602 1493.08861036 553.03619385 1504.2578125 C552.50012512 1504.79646942 551.9640564 1505.33512634 551.41174316 1505.8901062 C546.03615111 1511.28618121 540.64438785 1516.60994419 534.85113525 1521.56298828 C531.7142531 1524.27621834 528.73328638 1527.15520736 525.72369385 1530.0078125 C520.49670725 1534.92775023 515.17756523 1539.58655932 509.56744385 1544.06640625 C507.03481232 1546.13394032 504.62888224 1548.29394591 502.22369385 1550.5078125 C497.25680849 1555.02814823 492.03119595 1559.14221743 486.7276001 1563.25390625 C484.27506076 1565.15668261 481.84709739 1567.08482732 479.4385376 1569.04296875 C470.62806226 1576.20370213 461.5590427 1582.91456931 452.31256104 1589.50048828 C450.09622248 1591.08976752 447.89595266 1592.6987606 445.70025635 1594.31640625 C393.69119913 1632.54353228 335.78814608 1664.02584573 276.22564697 1688.80566406 C273.2154134 1690.05823829 270.21138436 1691.32469996 267.20806885 1692.59375 C255.97195082 1697.3043638 244.61294452 1701.49376581 233.07525635 1705.40625 C228.69303747 1706.89370546 224.36075105 1708.48657837 220.03619385 1710.1328125 C212.12032912 1713.07589041 204.20421716 1715.73556849 196.0635376 1717.984375 C193.07856284 1718.81953363 190.12094919 1719.72330478 187.1651001 1720.65625 C144.80668931 1733.99280509 99.5012843 1744.64911425 55.20806885 1748.7109375 C51.56371242 1749.04656475 47.9502494 1749.54884783 44.32525635 1750.05078125 C35.68031034 1751.21789167 27.01661838 1752.10652209 18.33355713 1752.93774414 C15.69853692 1753.19171329 13.06468827 1753.45602651 10.4307251 1753.72070312 C-14.09355534 1756.12374502 -38.65539026 1756.34073632 -63.27630615 1756.3203125 C-64.0005352 1756.32004562 -64.72476425 1756.31977875 -65.47093964 1756.31950378 C-88.02207301 1756.30909971 -110.48420814 1756.0725879 -132.96380615 1754.1328125 C-133.71619568 1754.06964844 -134.46858521 1754.00648437 -135.24377441 1753.94140625 C-155.85489336 1752.20738836 -176.35346908 1749.79824763 -196.83880615 1746.9453125 C-197.79111115 1746.81298218 -198.74341614 1746.68065186 -199.72457886 1746.54431152 C-202.4066727 1746.16896356 -205.08777019 1745.78734578 -207.76849365 1745.40234375 C-208.57168533 1745.28895157 -209.37487701 1745.17555939 -210.20240784 1745.05873108 C-215.72929699 1744.25006708 -215.72929699 1744.25006708 -217.96380615 1743.1328125 C-219.96684467 1742.83818567 -221.97070858 1742.5482927 -223.97796631 1742.28393555 C-236.10839872 1740.67204536 -247.82748121 1737.88890337 -259.68890381 1734.93115234 C-264.10098956 1733.85559543 -268.53089596 1732.86728459 -272.96258545 1731.8762207 C-284.30691324 1729.33120648 -295.40029424 1726.34813145 -306.49554443 1722.88720703 C-310.8819969 1721.54654055 -315.29932875 1720.3148789 -319.71380615 1719.0703125 C-341.15417881 1712.98882037 -341.15417881 1712.98882037 -351.50506592 1709.05053711 C-354.61593466 1707.88940558 -357.74455364 1706.78206952 -360.8739624 1705.671875 C-385.97062924 1696.73763731 -410.66381846 1686.99059291 -434.61029053 1675.27490234 C-437.20350871 1674.01649211 -439.80883147 1672.7858546 -442.41693115 1671.55859375 C-463.51958616 1661.61073726 -483.96362707 1650.78187493 -504.02484131 1638.87207031 C-506.89680312 1637.1724644 -509.77807515 1635.48994703 -512.6630249 1633.8125 C-525.01144515 1626.61474616 -537.08018504 1619.07406435 -548.96380615 1611.1328125 C-549.85599854 1610.53710449 -550.74819092 1609.94139648 -551.66741943 1609.32763672 C-564.69074847 1600.60331525 -577.44436246 1591.56551449 -589.96380615 1582.1328125 C-590.56483154 1581.68099609 -591.16585693 1581.22917969 -591.78509521 1580.76367188 C-600.41001102 1574.26127444 -608.78714015 1567.46265011 -617.14349365 1560.62109375 C-618.7364248 1559.31871871 -620.33410135 1558.02215218 -621.93255615 1556.7265625 C-632.39921271 1548.23010012 -642.61815539 1539.48321639 -652.47967529 1530.29077148 C-655.36740114 1527.59915605 -658.28280671 1524.95617167 -661.27630615 1522.3828125 C-664.59235383 1519.51863715 -667.67088711 1516.47190722 -670.71380615 1513.3203125 C-672.6622705 1511.42597217 -674.65362098 1509.65331041 -676.7098999 1507.87890625 C-680.99487608 1504.15547129 -685.02515815 1500.21974556 -689.02630615 1496.1953125 C-689.69468506 1495.53080078 -690.36306396 1494.86628906 -691.05169678 1494.18164062 C-695.00285024 1490.22280756 -698.74934546 1486.14594229 -702.40301514 1481.91186523 C-704.32910571 1479.71642929 -706.36804449 1477.66601411 -708.46380615 1475.6328125 C-711.85649014 1472.28024471 -715.05481299 1468.83805568 -718.15911865 1465.21875 C-720.18031891 1462.88255749 -722.25759454 1460.60316399 -724.33880615 1458.3203125 C-728.23744012 1454.00020459 -731.93884473 1449.55209869 -735.59661865 1445.02734375 C-737.64757912 1442.51948615 -739.73777418 1440.05219814 -741.85028076 1437.59619141 C-747.69469323 1430.78800027 -753.16544403 1423.73710823 -758.5770874 1416.58203125 C-760.83494941 1413.60060476 -763.12342754 1410.64749784 -765.4442749 1407.71484375 C-773.09651222 1398.03967456 -780.26773808 1388.15189426 -787.11810303 1377.89404297 C-788.80138024 1375.37580683 -790.49294145 1372.86331246 -792.18716431 1370.35243225 C-806.29610761 1349.4319678 -819.68187484 1328.18545526 -831.96380615 1306.1328125 C-832.46315674 1305.23852539 -832.96250732 1304.34423828 -833.47698975 1303.42285156 C-856.6974858 1261.66598122 -876.07162038 1218.41753769 -892.14007568 1173.41772461 C-893.14133909 1170.64036119 -894.17917698 1167.87774399 -895.21990967 1165.11499023 C-900.63335387 1150.69039113 -905.07926839 1136.10716883 -909.10809326 1121.23925781 C-910.00482304 1117.98391126 -910.94350016 1114.74246492 -911.88568115 1111.5 C-914.07560628 1103.86282645 -916.02919754 1096.1740985 -917.94598389 1088.46484375 C-918.52588083 1086.13452167 -919.11081248 1083.80550358 -919.69622803 1081.4765625 C-922.63154435 1069.74747116 -925.38214705 1057.99714668 -927.40130615 1046.0703125 C-928.19101406 1041.44358461 -929.01261966 1036.82861784 -929.9364624 1032.2265625 C-932.39516285 1019.94247155 -934.17623471 1007.67218655 -935.60491943 995.22753906 C-935.95941458 992.17068163 -936.33243265 989.11659787 -936.7098999 986.0625 C-944.74990827 920.14483918 -944.9009528 853.86871907 -939.02630615 787.7578125 C-938.94698853 786.85459259 -938.8676709 785.95137268 -938.78594971 785.02078247 C-937.74645266 773.35773793 -936.24008915 761.84915633 -934.31741333 750.30029297 C-933.78214992 747.01932737 -933.3055919 743.73172283 -932.83099365 740.44140625 C-932.66470459 739.29349609 -932.49841553 738.14558594 -932.3270874 736.96289062 C-931.99204429 734.63501107 -931.65880529 732.30687135 -931.3270874 729.97851562 C-931.16337646 728.85251953 -930.99966553 727.72652344 -930.83099365 726.56640625 C-930.68774658 725.56665771 -930.54449951 724.56690918 -930.39691162 723.53686523 C-929.96380615 721.1328125 -929.96380615 721.1328125 -928.96380615 719.1328125 C-928.62369377 717.32334937 -928.32085912 715.50679603 -928.0380249 713.6875 C-927.09460746 707.84265938 -925.99201785 702.05156436 -924.77630615 696.2578125 C-924.5648999 695.24895996 -924.35349365 694.24010742 -924.13568115 693.20068359 C-920.00253186 673.70698016 -915.61520565 654.24809913 -909.96380615 635.1328125 C-909.744021 634.38016113 -909.52423584 633.62750977 -909.29779053 632.85205078 C-906.26114827 622.46545116 -903.04935106 612.13465613 -899.77630615 601.8203125 C-899.4433252 600.76448975 -899.11034424 599.70866699 -898.76727295 598.62084961 C-896.10872128 590.30444031 -896.10872128 590.30444031 -894.40911865 586.4375 C-892.70800834 582.54793426 -891.38011132 578.59055238 -890.02630615 574.5703125 C-886.92005306 565.52463993 -883.46043645 556.63230583 -879.90130615 547.7578125 C-879.65204376 547.13486298 -879.40278137 546.51191345 -879.14596558 545.87008667 C-871.09458514 525.77853511 -862.11586435 506.24979121 -852.44012451 486.90014648 C-851.15913229 484.33597811 -849.88459521 481.76866891 -848.61029053 479.20117188 C-843.03004739 468.00166245 -837.15931311 457.00376617 -830.96380615 446.1328125 C-830.59925323 445.49294403 -830.23470032 444.85307556 -829.85910034 444.19381714 C-827.48208421 440.03340884 -825.07544946 435.89091288 -822.65130615 431.7578125 C-822.29207062 431.14438995 -821.93283508 430.53096741 -821.56271362 429.8989563 C-815.02548086 418.75502714 -808.1436629 407.87497267 -800.96380615 397.1328125 C-800.24064209 396.03582031 -799.51747803 394.93882812 -798.7723999 393.80859375 C-796.85329038 390.90472903 -794.91385176 388.0159854 -792.96380615 385.1328125 C-792.57579834 384.55708496 -792.18779053 383.98135742 -791.7880249 383.38818359 C-777.67636634 362.48829299 -762.41900349 342.45519284 -746.44769287 322.94873047 C-745.15747421 321.36981529 -743.87445027 319.78502623 -742.5927124 318.19921875 C-733.06093282 306.42878268 -723.06069979 295.08437076 -712.71405029 284.02661133 C-711.39979978 282.60456624 -710.09913404 281.16994666 -708.80535889 279.72924805 C-700.74656959 270.80007544 -692.28010529 262.29685813 -683.76531982 253.80395508 C-681.26716648 251.31119255 -678.77444417 248.81308775 -676.28216553 246.31445312 C-674.67246024 244.70540822 -673.062445 243.09667332 -671.4520874 241.48828125 C-670.71855545 240.75272507 -669.9850235 240.01716888 -669.22926331 239.25932312 C-665.18805183 235.23618925 -661.05815511 231.37788247 -656.73162842 227.66252136 C-653.96708136 225.27033963 -651.31730729 222.75847697 -648.65130615 220.2578125 C-643.85731475 215.79776894 -638.93869619 211.56971697 -633.83099365 207.46875 C-630.54800918 204.79405693 -627.35140912 202.03047125 -624.15130615 199.2578125 C-617.91870028 193.88563418 -611.54222042 188.73967527 -605.02337646 183.71972656 C-603.5492021 182.58386438 -602.07747103 181.44482838 -600.60736084 180.30371094 C-589.80115946 171.92023735 -578.86237693 163.8535371 -567.5145874 156.21875 C-563.79804324 153.71578739 -560.14574364 151.13506722 -556.50750732 148.52001953 C-547.96011844 142.3831786 -539.14539315 136.84568253 -530.12200928 131.43994141 C-527.41832238 129.80243692 -524.74943031 128.11369258 -522.08123779 126.41918945 C-499.34003719 111.99772979 -475.47241699 99.2984723 -451.40130615 87.2578125 C-450.48201828 86.79742081 -450.48201828 86.79742081 -449.54415894 86.32772827 C-435.66733035 79.39059764 -421.65742536 72.86235939 -407.33880615 66.8828125 C-406.68238129 66.60789978 -406.02595642 66.33298706 -405.34963989 66.04974365 C-367.5945287 50.26481388 -328.96812026 37.06075045 -289.37982178 26.70288086 C-286.96416941 26.07040761 -284.54987825 25.43292477 -282.13568115 24.79492188 C-266.85307825 20.77057522 -251.63294505 17.06545036 -236.02630615 14.5078125 C-233.57948053 14.1002232 -231.13286123 13.69139317 -228.6864624 13.28125 C-226.9539624 12.99084839 -226.9539624 12.99084839 -225.1864624 12.69458008 C-222.39380478 12.20776908 -219.61915058 11.67622416 -216.8427124 11.10546875 C-146.22237796 -3.34532424 -71.67490764 -4.71408145 0 0 Z M-129.96380615 77.1328125 C-132.47925448 77.29118172 -134.99655938 77.42126823 -137.5145874 77.53125 C-147.79752652 78.06549644 -157.95324596 79.37269647 -168.15130615 80.7578125 C-169.12568634 80.88908539 -170.10006653 81.02035828 -171.10397339 81.15560913 C-255.4903298 92.59653487 -336.70266331 117.29800318 -523.96380615 219.1328125 C-524.62187256 219.58865723 -525.27993896 220.04450195 -525.95794678 220.51416016 C-553.06637138 239.36602214 -578.6953303 260.45705604 -603.16693115 282.6027832 C-604.93247805 284.19988189 -606.70147663 285.79318067 -608.47528076 287.38110352 C-617.06533382 295.14419039 -625.26351446 303.27978404 -633.43817139 311.47680664 C-635.78607671 313.8301055 -638.13932583 316.1779664 -640.49310303 318.52539062 C-642.01100212 320.04395008 -643.52859121 321.56281946 -645.0458374 323.08203125 C-645.73764603 323.77181564 -646.42945465 324.46160004 -647.14222717 325.17228699 C-651.06489773 329.11365072 -654.81357909 333.15500909 -658.44007874 337.37097168 C-660.67631637 339.95666694 -663.00874251 342.44381775 -665.33880615 344.9453125 C-669.55778869 349.51713707 -673.57528083 354.20536094 -677.4755249 359.0546875 C-679.33441102 361.35422009 -681.20995391 363.63194798 -683.1083374 365.8984375 C-691.38796574 375.80539216 -699.26220123 385.96707387 -706.9208374 396.36108398 C-708.42845604 398.4064944 -709.94193341 400.44692347 -711.4598999 402.48461914 C-718.45660731 411.90943449 -725.09263382 421.54499226 -731.58880615 431.3203125 C-732.10649567 432.0980603 -732.62418518 432.87580811 -733.15756226 433.67712402 C-747.24525461 454.87223493 -760.47240939 476.4465153 -772.31292725 498.99121094 C-773.45340414 501.16152396 -774.59995416 503.3286526 -775.75140381 505.49316406 C-813.83735481 577.09835724 -840.77703496 655.29006691 -857.66101074 755.14733887 C-857.94603311 757.01627208 -858.24096868 758.88368578 -858.53656006 760.75097656 C-859.7607338 768.49854767 -860.80166661 776.25562326 -861.71514893 784.04589844 C-861.97335049 786.21291555 -862.24600241 788.37782891 -862.51947021 790.54296875 C-866.1645364 820.00453256 -866.31970289 849.43166188 -866.27630615 879.0703125 C-866.27518326 880.05175358 -866.27406036 881.03319466 -866.27290344 882.04437637 C-866.26380606 888.68723849 -866.23804917 895.32988949 -866.2020874 901.97265625 C-866.19848772 902.83143497 -866.19488804 903.6902137 -866.19117928 904.57501602 C-866.17274394 923.93648545 -866.17274394 923.93648545 -863.96380615 943.1328125 C-863.81953692 944.71540715 -863.69941033 946.30040277 -863.60443115 947.88671875 C-858.22044978 1029.03151882 -837.07288245 1110.26107448 -726.47991943 1330.97412109 C-724.99442398 1333.08921785 -723.52277824 1335.2133562 -722.0536499 1337.33984375 C-710.54912792 1353.9128729 -698.20121785 1369.86148194 -685.36859131 1385.42382812 C-684.06254214 1387.01269573 -682.76852534 1388.61143303 -681.4755249 1390.2109375 C-677.15504515 1395.55370694 -672.69912706 1400.72802902 -668.07318115 1405.80859375 C-666.21753958 1407.85323585 -664.39624239 1409.92065399 -662.58880615 1412.0078125 C-655.65772147 1419.94968036 -648.52511646 1427.64710803 -641.01849365 1435.046875 C-638.43250773 1437.6721915 -636.04360493 1440.43959782 -633.6395874 1443.23046875 C-629.76906363 1447.62428011 -625.58943722 1451.63101511 -621.15130615 1455.4453125 C-617.9404686 1458.20899279 -614.9411345 1461.11900846 -611.96380615 1464.1328125 C-608.43067216 1467.70364762 -604.83007521 1471.09832475 -601.0145874 1474.36328125 C-598.68814033 1476.37067273 -596.42187929 1478.43747888 -594.15130615 1480.5078125 C-589.9066946 1484.33439413 -585.55212844 1487.98580161 -581.1083374 1491.578125 C-578.79617197 1493.44785284 -576.50697868 1495.34292385 -574.2255249 1497.25 C-543.20940645 1523.12602704 -509.79988094 1546.65689639 -474.96380615 1567.1328125 C-473.87543457 1567.77790771 -473.87543457 1567.77790771 -472.76507568 1568.43603516 C-404.58089746 1608.79413418 -331.13650398 1639.00115969 -230.96380615 1663.1328125 C-229.75031494 1663.4004541 -228.53682373 1663.6680957 -227.28656006 1663.94384766 C-189.46309592 1672.15097283 -150.587103 1676.89089388 -111.96380615 1679.1328125 C-111.19194977 1679.17906769 -110.42009338 1679.22532288 -109.62484741 1679.27297974 C-94.71735196 1680.14658573 -79.83203723 1680.33453601 -64.90130615 1680.3203125 C-63.7199408 1680.31970825 -62.53857544 1680.319104 -61.32141113 1680.31848145 C-41.13760541 1680.29061969 -21.0802568 1679.79176476 -0.96380615 1678.1328125 C-0.1891803 1678.06964844 0.58544556 1678.00648437 1.38354492 1677.94140625 C55.77316628 1673.45985413 109.73501846 1663.84251387 162.03619385 1648.1328125 C162.67645508 1647.94052063 163.31671631 1647.74822876 163.97637939 1647.55010986 C207.38050172 1634.48252227 249.45953271 1618.3776836 290.03619385 1598.1328125 C291.52788576 1597.39873165 293.02002035 1596.66554913 294.51275635 1595.93359375 C297.69622096 1594.36658323 300.86499667 1592.77302274 304.02496338 1591.15917969 C305.44875135 1590.43259501 306.87439709 1589.70964544 308.30133057 1588.98925781 C335.95070394 1574.99989184 362.46008295 1558.60786483 388.03619385 1541.1328125 C388.77917725 1540.62556641 389.52216064 1540.11832031 390.28765869 1539.59570312 C418.61466108 1520.18141367 446.04341894 1498.91152386 471.3057251 1475.6171875 C473.48638379 1473.63306886 475.68766257 1471.68530071 477.91119385 1469.75 C488.70758518 1460.32640658 498.95370148 1450.31096609 509.09869385 1440.1953125 C509.9787207 1439.31987793 510.85874756 1438.44444336 511.76544189 1437.54248047 C516.14894078 1433.14851378 520.38552627 1428.69284269 524.42950439 1423.98461914 C527.00473176 1421.01651405 529.71528337 1418.17834888 532.41119385 1415.3203125 C537.05934918 1410.35308157 541.48097921 1405.27705217 545.7354126 1399.96484375 C548.39529762 1396.69079172 551.14890763 1393.5078356 553.91119385 1390.3203125 C559.28343655 1384.08776728 564.42933497 1377.71122171 569.44927979 1371.19238281 C570.58514197 1369.71820844 571.72417797 1368.24647737 572.86529541 1366.77636719 C581.84380109 1355.20317626 590.46026844 1343.46658138 598.597229 1331.28613281 C599.93815795 1329.27951704 601.28823083 1327.27944522 602.6416626 1325.28125 C621.99673297 1296.61257616 639.70539891 1266.72404493 654.82476807 1235.60009766 C656.28068876 1232.63485491 657.77147279 1229.68786946 659.2588501 1226.73828125 C679.16938067 1186.96985933 694.74875035 1145.0969484 707.08551025 1102.40087891 C707.90631881 1099.57927045 708.75043817 1096.76687633 709.6104126 1093.95703125 C724.64952917 1044.20054804 732.97342979 991.8751984 737.03619385 940.1328125 C737.14060791 938.8216748 737.24502197 937.51053711 737.3526001 936.15966797 C740.48312389 895.65194654 740.21361939 854.62733582 737.03619385 814.1328125 C736.94499268 812.89966309 736.8537915 811.66651367 736.75982666 810.39599609 C730.27623651 725.18797184 708.92816872 640.53087964 675.03619385 562.1328125 C674.7005542 561.35115723 674.36491455 560.56950195 674.019104 559.76416016 C668.10309742 546.0281104 661.58179917 532.57736805 655.03619385 519.1328125 C654.60548584 518.24271484 654.17477783 517.35261719 653.73101807 516.43554688 C647.05973564 502.67453715 639.68347353 489.37309782 632.03619385 476.1328125 C631.59807373 475.3687207 631.15995361 474.60462891 630.70855713 473.81738281 C619.72801508 454.67874665 607.66806864 436.21714248 595.03619385 418.1328125 C594.61450928 417.52598633 594.19282471 416.91916016 593.75836182 416.29394531 C583.44219872 401.4794798 572.36604034 387.18169699 561.03619385 373.1328125 C559.88377197 371.70195313 559.88377197 371.70195313 558.70806885 370.2421875 C550.17793961 359.77024022 541.4018171 349.53049045 532.2666626 339.58203125 C530.31716366 337.44133802 528.4191608 335.26930188 526.53619385 333.0703125 C523.03767129 329.03545983 519.24368496 325.32573359 515.4463501 321.57421875 C513.36430168 319.46517457 511.40096303 317.31953848 509.47369385 315.0703125 C503.85095748 308.52365232 497.68046057 302.62123985 491.1338501 297.01171875 C488.67193484 294.80653954 486.35895744 292.48394573 484.03619385 290.1328125 C480.50305985 286.56197738 476.9024629 283.16730025 473.0869751 279.90234375 C470.76052802 277.89495227 468.49426699 275.82814612 466.22369385 273.7578125 C461.98043377 269.93244925 457.62759888 266.2818716 453.18463135 262.69140625 C450.85807931 260.81018841 448.55652575 258.90151498 446.26275635 256.98046875 C435.47319821 247.96552596 424.35844903 239.4659193 413.03619385 231.1328125 C411.94516357 230.32360352 411.94516357 230.32360352 410.83209229 229.49804688 C383.84377923 209.49655598 355.38719692 191.44859241 326.03619385 175.1328125 C325.08244873 174.60107422 324.12870361 174.06933594 323.14605713 173.52148438 C296.58486876 158.78122128 269.29610138 145.30067964 241.03619385 134.1328125 C239.17143376 133.38325207 237.30685134 132.6332495 235.44244385 131.8828125 C220.45356107 125.89426051 205.27262694 120.4548342 190.03619385 115.1328125 C189.18186768 114.83246094 188.3275415 114.53210937 187.44732666 114.22265625 C135.39344679 95.99829577 80.12960783 85.0250523 25.41119385 78.8828125 C24.73442596 78.80577087 24.05765808 78.72872925 23.36038208 78.64935303 C19.10134187 78.17086191 14.83935683 77.74725722 10.57086182 77.36221313 C8.80280499 77.2021948 7.03525404 77.03653009 5.26812744 76.86654663 C-17.05747296 74.7656182 -39.34462072 74.85985174 -61.74725342 74.93719482 C-65.72454927 74.9480783 -69.70181093 74.94766098 -73.67911911 74.94705677 C-77.56743304 74.94733072 -81.45572555 74.95284549 -85.34403229 74.96005821 C-87.17292368 74.96319336 -89.00181744 74.9651999 -90.83071136 74.96595192 C-110.47570262 74.94024811 -110.47570262 74.94024811 -129.96380615 77.1328125 Z " fill="#FBFAFB" transform="translate(2530.9638061523438,1137.8671875)"/>
<path d="M0 0 C2.52167388 1.59513224 4.84563601 3.40394778 7.1875 5.25 C8.62120826 6.35310771 10.05614952 7.45461435 11.4921875 8.5546875 C12.6054541 9.41078613 12.6054541 9.41078613 13.74121094 10.28417969 C17.38222618 13.04996601 21.09620447 15.71170922 24.8125 18.375 C33.46183315 24.59345653 42.04152102 30.90315739 50.60888672 37.23388672 C54.56991151 40.15956094 58.53510594 43.07957278 62.5 46 C67.26381471 49.50888924 72.02671798 53.01897803 76.78515625 56.53515625 C84.49539457 62.22964599 92.22163589 67.89882943 100 73.5 C108.58359269 79.68101263 117.10201249 85.94785667 125.60888672 92.23388672 C129.56991151 95.15956094 133.53510594 98.07957278 137.5 101 C142.26381471 104.50888924 147.02671798 108.01897803 151.78515625 111.53515625 C159.49539457 117.22964599 167.22163589 122.89882943 175 128.5 C183.58359269 134.68101263 192.10201249 140.94785667 200.60888672 147.23388672 C204.56991151 150.15956094 208.53510594 153.07957278 212.5 156 C217.26381471 159.50888924 222.02671798 163.01897803 226.78515625 166.53515625 C235.22455296 172.76817473 243.69117173 178.959291 252.20654297 185.08813477 C258.68795694 189.75917359 265.12244648 194.49246662 271.54492188 199.24414062 C272.28677734 199.79263672 273.02863281 200.34113281 273.79296875 200.90625 C274.4377417 201.38384766 275.08251465 201.86144531 275.74682617 202.35351562 C277.86260674 203.96355901 277.86260674 203.96355901 279.71743435 204.98288965 C283.39968902 207.23010466 284.80091777 208.22556001 285.91161442 212.5462265 C285.9641464 213.93890838 285.97869746 215.3333459 285.96290588 216.72692871 C285.98158704 217.49790343 286.0002682 218.26887815 286.01951545 219.06321573 C286.07314403 221.64368539 286.07682161 224.22174572 286.08032227 226.80273438 C286.1078214 228.65431923 286.1381296 230.50586419 286.17103577 232.35736084 C286.24998943 237.38676465 286.28283512 242.4154367 286.30252576 247.44538689 C286.31639532 250.59126977 286.33922347 253.73696061 286.3650341 256.88276672 C286.4537839 267.86853835 286.50188483 278.85373479 286.5168457 289.83984375 C286.53196671 300.06207152 286.64084074 310.28043722 286.79272038 320.50146246 C286.91870336 329.28908172 286.9748616 338.07542453 286.97828525 346.86393976 C286.98170373 352.10797321 287.0134764 357.34801738 287.11709785 362.59111023 C287.75634172 397.00653101 287.75634172 397.00653101 281.17160034 404.29443359 C277.54451838 407.30891029 273.75885162 409.24150513 269.38288021 410.94446468 C265.18700109 412.80309718 261.68366745 415.6546471 258.0625 418.4375 C257.23049072 419.03747803 256.39848145 419.63745605 255.54125977 420.25561523 C250.17075129 424.13892641 244.83061512 428.06215633 239.5 432 C229.64592179 439.27942622 219.71425666 446.44830324 209.77050781 453.60449219 C201.31406964 459.6923875 192.88111091 465.80868741 184.5 472 C176.12051542 478.19011119 167.68892637 484.30474309 159.23388672 490.39111328 C155.48640231 493.09012118 151.74338799 495.79531494 148 498.5 C143.51389621 501.74131453 139.02695169 504.98141954 134.53515625 508.21484375 C126.82537027 513.76804624 119.14242369 519.35437205 111.5 525 C101.64592179 532.27942622 91.71425666 539.44830324 81.77050781 546.60449219 C73.31406964 552.6923875 64.88111091 558.80868741 56.5 565 C47.38239189 571.73537941 38.20021451 578.3781028 29 585 C25.64497981 587.4154845 22.29099335 589.83239635 18.9375 592.25 C18.15689209 592.81146729 17.37628418 593.37293457 16.57202148 593.95141602 C15.85602783 594.46760498 15.14003418 594.98379395 14.40234375 595.515625 C13.76804443 595.97227539 13.13374512 596.42892578 12.48022461 596.89941406 C11.02823404 597.92325449 11.02823404 597.92325449 10 599 C4.30970359 598.54821548 -0.73354929 597.33085944 -6.125 595.515625 C-6.89215332 595.26403625 -7.65930664 595.01244751 -8.44970703 594.75323486 C-10.96872944 593.92550748 -13.48427983 593.08770448 -16 592.25 C-17.7862033 591.66133495 -19.57266668 591.07345854 -21.359375 590.48632812 C-25.06872242 589.26672164 -28.77693102 588.04373932 -32.484375 586.81835938 C-40.15806037 584.28488704 -47.84511428 581.79278053 -55.53222656 579.30041504 C-59.68879091 577.95224565 -63.84434007 576.60095408 -68 575.25 C-69.66666188 574.70831862 -71.33332855 574.16665194 -73 573.625 C-89.66666667 568.20833333 -106.33333333 562.79166667 -123 557.375 C-123.82493958 557.10689514 -124.64987915 556.83879028 -125.49981689 556.56256104 C-127.16709511 556.0206946 -128.83437213 555.47882448 -130.50164795 554.93695068 C-134.65894815 553.58581037 -138.81626888 552.23473328 -142.97363281 550.88378906 C-150.5852805 548.4102976 -158.19684147 545.93654354 -165.80744934 543.45985413 C-167.54680532 542.89403733 -169.28629664 542.3286364 -171.02592468 541.76365662 C-175.27579588 540.38305956 -179.52351897 538.99654059 -183.7668457 537.59594727 C-191.32728881 535.10827348 -198.88291908 532.71346517 -206.55859375 530.60546875 C-207.87114692 530.23212305 -209.1833343 529.8574885 -210.49511719 529.48144531 C-212.86612177 528.81109252 -215.24818819 528.17810071 -217.64160156 527.59277344 C-225.15792562 525.42428949 -225.15792562 525.42428949 -227.43937683 521.56542969 C-227.80122574 520.59895508 -228.16307465 519.63248047 -228.53588867 518.63671875 C-228.94762833 517.55917831 -229.35936798 516.48163788 -229.78358459 515.3714447 C-230.38571022 513.70257957 -230.38571022 513.70257957 -231 512 C-231.56931496 510.46304222 -231.56931496 510.46304222 -232.15013123 508.89503479 C-233.33649106 505.64819636 -234.48827369 502.39071203 -235.6328125 499.12890625 C-236.29129489 497.26635744 -236.94977927 495.40380934 -237.60834312 493.54128933 C-238.3038466 491.57239129 -238.99774255 489.60293364 -239.69116211 487.63330078 C-241.90265896 481.35221769 -244.12470209 475.07486142 -246.34564972 468.79711533 C-247.10339798 466.65496736 -247.86076263 464.51268403 -248.61810303 462.37039185 C-253.20516993 449.39912182 -257.84614301 436.44744728 -262.5 423.5 C-269.38015985 404.34981502 -276.20362665 385.18002804 -283 366 C-290.19498644 345.69600835 -297.41765393 325.40232851 -304.6875 305.125 C-305.29404419 303.43238037 -305.29404419 303.43238037 -305.9128418 301.70556641 C-307.04918909 298.53520188 -308.18647628 295.36517657 -309.32421875 292.1953125 C-309.81954353 290.81377487 -309.81954353 290.81377487 -310.32487488 289.40432739 C-310.78994194 288.11001297 -310.78994194 288.11001297 -311.2644043 286.78955078 C-311.5551181 285.97697815 -311.84583191 285.16440552 -312.14535522 284.32720947 C-312.70646221 282.79930745 -313.28877498 281.27899416 -313.89395142 279.76800537 C-316.63832701 272.89639431 -316.63832701 272.89639431 -316 269 C-314.73754883 266.60668945 -314.73754883 266.60668945 -312.95703125 264.11328125 C-312.30186523 263.18386719 -311.64669922 262.25445313 -310.97167969 261.296875 C-310.25915039 260.31203125 -309.54662109 259.3271875 -308.8125 258.3125 C-308.08579102 257.29027344 -307.35908203 256.26804687 -306.61035156 255.21484375 C-305.12335818 253.12719615 -303.63100262 251.04335752 -302.13330078 248.96337891 C-300.23135183 246.321372 -298.34477754 243.66940677 -296.46484375 241.01171875 C-290.03499734 231.96162813 -283.3151521 223.20070456 -276.29882812 214.59863281 C-274.49113837 212.37367933 -272.71594483 210.12335911 -270.9375 207.875 C-263.9111578 199.09936099 -256.59815019 190.57424482 -249.0390625 182.25390625 C-247.20913753 180.2311731 -245.41118272 178.18630565 -243.625 176.125 C-234.58047896 165.77788243 -225.09494967 155.93429258 -215.36499023 146.23461914 C-213.30139939 144.17642843 -211.24326325 142.1128902 -209.18554688 140.04882812 C-207.8492791 138.71322066 -206.51270143 137.37792316 -205.17578125 136.04296875 C-204.57349197 135.43865524 -203.9712027 134.83434174 -203.35066223 134.2117157 C-199.61624692 130.49743859 -195.75990283 126.97312421 -191.77124023 123.53312683 C-189.3624507 121.44815846 -187.02746477 119.28664708 -184.6875 117.125 C-180.19986568 113.03242565 -175.59069772 109.14729166 -170.86328125 105.3359375 C-168.3462336 103.28246616 -165.8749594 101.18487222 -163.41430664 99.06445312 C-156.20331771 92.86570636 -148.68349874 87.15726947 -141.03515625 81.51171875 C-139.04354754 80.03234721 -137.06651498 78.53563215 -135.09375 77.03125 C-100.42097445 50.63335094 -62.82469535 28.33200582 -24.04736328 8.56396484 C-21.32026436 7.16436576 -18.60871366 5.73992169 -15.90234375 4.30078125 C-14.47665777 3.55450548 -13.05088531 2.80839486 -11.625 2.0625 C-11.00778076 1.72637695 -10.39056152 1.39025391 -9.75463867 1.04394531 C-6.06575674 -0.85640371 -3.8979517 -1.56758921 0 0 Z " fill="#FBFAFB" transform="translate(2156,1338)"/>
<path d="M0 0 C2.04372331 0.85722406 4.06174777 1.77690507 6.05859375 2.73828125 C7.82783203 3.5883374 7.82783203 3.5883374 9.6328125 4.45556641 C10.90135633 5.07389915 12.16957831 5.69289253 13.4375 6.3125 C14.08315918 6.62612488 14.72881836 6.93974976 15.39404297 7.26287842 C27.4739689 13.13614199 39.29776946 19.40504261 51 26 C52.72654663 26.96226807 54.45310914 27.92450763 56.1796875 28.88671875 C76.43098174 40.24641126 95.99509504 52.66576735 115 66 C115.60392578 66.42023438 116.20785156 66.84046875 116.83007812 67.2734375 C142.21297676 84.94617239 166.51943174 104.40176219 189.20703125 125.42578125 C191.75644449 127.77552017 194.34005644 130.07870932 196.9375 132.375 C202.70277456 137.54322347 208.12673707 143.04427256 213.56640625 148.55004883 C217.15354369 152.1781158 220.77630702 155.77023053 224.3984375 159.36328125 C226.05735698 161.01295516 227.71620932 162.66269658 229.375 164.3125 C230.2 165.12912109 231.025 165.94574219 231.875 166.78710938 C236.80031602 171.69288049 241.47499817 176.72527183 246 182 C247.45445517 183.60768373 248.91220895 185.21239715 250.375 186.8125 C254.20036325 191.05576008 257.8509409 195.40859497 261.44140625 199.8515625 C263.32262409 202.17811454 265.23129752 204.47966809 267.15234375 206.7734375 C273.67386418 214.57894923 280.00400849 222.50046099 286.125 230.625 C287.06593506 231.86817993 287.06593506 231.86817993 288.02587891 233.13647461 C288.91412354 234.32575562 288.91412354 234.32575562 289.8203125 235.5390625 C290.33867676 236.23209473 290.85704102 236.92512695 291.39111328 237.63916016 C291.9220459 238.4182373 292.45297852 239.19731445 293 240 C293.79325684 241.02085693 294.58651367 242.04171387 295.40380859 243.09350586 C296.7284217 245.48358509 297.04164426 246.6602908 296.70608521 249.39758301 C295.85472789 252.32447995 294.82716688 255.12515494 293.71875 257.96484375 C293.12640564 259.58477989 293.12640564 259.58477989 292.52209473 261.23744202 C291.20757944 264.81442571 289.85362152 268.37515168 288.5 271.9375 C287.5672497 274.45661503 286.63705321 276.9765026 285.7109375 279.49804688 C284.02583485 284.07860924 282.33178881 288.65565475 280.62583923 293.22849464 C276.37469204 304.62796308 272.2938139 316.08680225 268.22473145 327.55236816 C266.16280931 333.35670055 264.08858669 339.15663448 262.015625 344.95703125 C261.18290015 347.28855902 260.35021794 349.62010202 259.51757812 351.95166016 C257.39467544 357.89539523 255.27111481 363.83889502 253.14733887 369.78231812 C245.40543863 391.44822882 237.6639627 413.11423836 229.96136475 434.79415894 C223.95813871 451.69073808 217.9493044 468.58532451 211.92626953 485.47485352 C211.07867544 487.85241059 210.23164184 490.23016757 209.38525391 492.6081543 C208.98612793 493.72939697 208.58700195 494.85063965 208.17578125 496.00585938 C207.58361816 497.67092529 207.58361816 497.67092529 206.97949219 499.36962891 C206.189696 501.57606936 205.39255831 503.77989651 204.58789062 505.98095703 C202.47385331 511.77221618 200.49255665 517.57096587 198.67578125 523.46289062 C192.7016253 542.23521125 192.7016253 542.23521125 187.96533203 545.87744141 C184.93594683 547.29979351 182.15459851 548.23037295 178.86761475 548.84875488 C176.60796843 549.27691211 174.41902033 549.84171135 172.19970703 550.44433594 C169.59692233 551.14921865 166.99430294 551.84338994 164.37905884 552.50079346 C155.72680044 554.69258645 147.28112999 557.42609461 138.8203125 560.25 C138.10158085 560.48964855 137.3828492 560.7292971 136.6423378 560.97620773 C133.67018751 561.96809015 130.69861281 562.96166723 127.72789955 563.95784569 C119.32634236 566.77446141 110.90621462 569.53380293 102.484375 572.2890625 C101.35636286 572.65846388 101.35636286 572.65846388 100.20556259 573.03532791 C84.20558877 578.2747477 68.18029376 583.433601 52.13354492 588.52807617 C42.4767706 591.59550086 32.83630349 594.70201515 23.22265625 597.90234375 C21.34038043 598.526025 19.45805725 599.14956333 17.57568359 599.77294922 C14.08328329 600.92979462 10.59631481 602.10133829 7.11181641 603.28173828 C5.56823403 603.79389797 4.02446286 604.30548913 2.48046875 604.81640625 C1.79034195 605.05503891 1.10021515 605.29367157 0.38917542 605.53953552 C-3.44823969 606.7926582 -6.13865452 607.30882246 -10 606 C-12.16241758 604.64523236 -14.1560114 603.27773354 -16.1875 601.75 C-17.4361546 600.83457633 -18.68485476 599.9192148 -19.93359375 599.00390625 C-20.59343262 598.5155127 -21.25327148 598.02711914 -21.93310547 597.52392578 C-24.77212045 595.43071393 -27.63457734 593.3707462 -30.49707031 591.30981445 C-32.78802762 589.66011666 -35.07597464 588.0063175 -37.36328125 586.3515625 C-40.39993186 584.15548737 -43.4389656 581.96278675 -46.48046875 579.7734375 C-54.98992059 573.64502803 -63.45739685 567.46380502 -71.89208984 561.23291016 C-80.21502749 555.09080366 -88.60432215 549.04209317 -97 543 C-107.00550398 535.79936792 -116.97688478 528.55749214 -126.89208984 521.23291016 C-134.4766884 515.63567826 -142.1158833 510.11591373 -149.76611328 504.60888672 C-154.26523169 501.36853805 -158.75824119 498.11972298 -163.25244141 494.87255859 C-166.987945 492.17401978 -170.7248148 489.47742047 -174.46484375 486.78515625 C-182.97920681 480.65243321 -191.45216202 474.46767211 -199.89208984 468.23291016 C-208.21502749 462.09080366 -216.60432215 456.04209317 -225 450 C-234.20059597 443.37863374 -243.38233788 436.73529322 -252.5 430 C-258.91575496 425.2613459 -265.34958268 420.5491692 -271.8125 415.875 C-272.54726562 415.34261719 -273.28203125 414.81023437 -274.0390625 414.26171875 C-274.73386719 413.76027344 -275.42867187 413.25882813 -276.14453125 412.7421875 C-276.74628174 412.3076123 -277.34803223 411.87303711 -277.96801758 411.42529297 C-280.10645844 409.85950075 -280.10645844 409.85950075 -283.07433319 408.39540672 C-286 406 -286 406 -286.78856659 402.51714516 C-286.83711995 401.09487758 -286.85273575 399.67125983 -286.84265137 398.24819946 C-286.8604781 397.46245053 -286.87830483 396.67670159 -286.89667177 395.86714208 C-286.94875355 393.23086495 -286.95783663 390.59622349 -286.96679688 387.95947266 C-286.9945712 386.07025669 -287.02471992 384.18107435 -287.05706787 382.29193115 C-287.13581136 377.15504112 -287.17448357 372.01862157 -287.20113182 366.88122225 C-287.21872739 363.66819102 -287.24335883 360.45528777 -287.27015686 357.24232101 C-287.35223017 347.17975451 -287.41020785 337.11748124 -287.43336821 327.05460322 C-287.46020966 315.45700825 -287.56526 303.86367201 -287.73937178 292.26737177 C-287.86939934 283.29381104 -287.92961098 274.32144297 -287.93761492 265.34695089 C-287.94388524 259.99162477 -287.97888794 254.64029852 -288.08653259 249.28596878 C-288.75432291 214.11483927 -288.75432291 214.11483927 -282.05421448 206.34138489 C-278.40880753 203.10627055 -274.57014766 200.86365928 -270.10357952 198.94811916 C-267.21613976 197.64670082 -264.9010734 195.81159205 -262.46484375 193.80859375 C-260.95683692 192.68340966 -259.44775131 191.55966969 -257.9375 190.4375 C-251.78721973 185.84494828 -245.65489995 181.23160423 -239.5625 176.5625 C-238.88380859 176.04236328 -238.20511719 175.52222656 -237.50585938 174.98632812 C-236.09401711 173.90404755 -234.68223467 172.82168893 -233.27050781 171.73925781 C-222.2526069 163.29930877 -211.21416188 154.88726972 -200.09741211 146.57788086 C-194.53973228 142.41818363 -189.01819829 138.21188162 -183.5 134 C-176.72574151 128.82940385 -169.93251242 123.6866651 -163.10644531 118.5847168 C-156.5379982 113.66832863 -150.0184171 108.6882566 -143.49609375 103.7109375 C-138.10566048 99.59905502 -132.6968068 95.51489994 -127.265625 91.45703125 C-122.73903575 88.06208931 -118.24806783 84.62006808 -113.75 81.1875 C-107.51882045 76.43281998 -101.27818874 71.69245231 -95 67 C-88.80525588 62.36985035 -82.64772435 57.69238071 -76.5 53 C-69.72282961 47.82718128 -62.92661812 42.68231827 -56.09765625 37.578125 C-50.53996925 33.4182466 -45.018308 29.21192698 -39.5 25 C-22.91189923 12.33982921 -22.91189923 12.33982921 -14.80224609 6.36621094 C-13.49436334 5.37475714 -12.21391898 4.3467751 -10.95166016 3.29785156 C-10.26249512 2.73807617 -9.57333008 2.17830078 -8.86328125 1.6015625 C-7.9338269 0.82159912 -7.9338269 0.82159912 -6.9855957 0.02587891 C-4.21946572 -1.40327124 -2.94077222 -0.9297109 0 0 Z " fill="#FBFAFB" transform="translate(2779,1335)"/>
<path d="M0 0 C0.77863403 0.62213379 0.77863403 0.62213379 1.57299805 1.25683594 C2.17926025 1.72782715 2.78552246 2.19881836 3.41015625 2.68408203 C4.04526123 3.19793457 4.68036621 3.71178711 5.3347168 4.24121094 C6.75005429 5.3444807 8.16677236 6.44598119 9.5847168 7.54589844 C10.67913086 8.40199707 10.67913086 8.40199707 11.7956543 9.27539062 C15.41125013 12.06161952 19.12241211 14.71102301 22.8347168 17.36621094 C31.48467789 23.58377836 40.06375173 29.8943786 48.63110352 36.22509766 C52.59212842 39.15077196 56.55737397 42.07071399 60.5222168 44.99121094 C62.10557059 46.15784984 63.68890392 47.32451651 65.2722168 48.49121094 C66.4478418 49.35746094 66.4478418 49.35746094 67.6472168 50.24121094 C74.7722168 55.49121094 74.7722168 55.49121094 77.14746094 57.24145508 C78.72989865 58.407419 80.31241811 59.57327197 81.89501953 60.73901367 C85.86773566 63.66552537 89.83898674 66.59398628 93.80737305 69.52636719 C101.51761137 75.22085693 109.24385268 80.89004037 117.0222168 86.49121094 C125.60580949 92.67222356 134.12422929 98.93906761 142.63110352 105.22509766 C146.5921283 108.15077188 150.55732274 111.07078372 154.5222168 113.99121094 C159.2860315 117.50010018 164.04893478 121.01018896 168.80737305 124.52636719 C176.57821743 130.26544715 184.36719379 135.97537984 192.2097168 141.61621094 C198.21136049 145.93435391 204.16966987 150.30509251 210.0847168 154.74121094 C210.77009521 155.25506348 211.45547363 155.76891602 212.16162109 156.29833984 C216.88667664 159.85567078 216.88667664 159.85567078 218.0222168 160.99121094 C218.39861399 168.10853964 217.32140852 174.96355153 216.2722168 181.99121094 C215.99716309 183.8583374 215.99716309 183.8583374 215.71655273 185.76318359 C215.15994741 189.50714203 214.59241258 193.24930114 214.0222168 196.99121094 C213.87268555 197.99249023 213.7231543 198.99376953 213.5690918 200.02539062 C200.52411231 286.65975669 171.49267384 371.63086529 121.0222168 461.99121094 C120.4845166 462.90563965 119.94681641 463.82006836 119.39282227 464.76220703 C103.3228008 491.96892872 85.49109724 518.10571034 66.0222168 542.99121094 C65.13002264 544.1420456 64.23810316 545.29309326 63.34643555 546.44433594 C57.58507413 553.85749901 51.71588117 561.17060181 45.46852112 568.18354797 C43.91441228 570.04136951 43.91441228 570.04136951 42.52110291 572.51017761 C40.57686916 575.51863604 38.81117828 577.72925429 36.0222168 579.99121094 C31.00242257 581.0633359 26.20740828 580.41603599 21.1628418 579.80761719 C19.66685522 579.66759934 18.17034314 579.53310305 16.67340088 579.40370178 C13.46349657 579.12025925 10.25779656 578.8097273 7.05224609 578.48077393 C1.9810745 577.97166438 -3.0945698 577.59029662 -8.17895508 577.24072266 C-9.03703514 577.18162027 -9.8951152 577.12251789 -10.77919769 577.06162453 C-12.53010977 576.94147247 -14.28104327 576.8216324 -16.03199768 576.70209885 C-20.48767468 576.39336305 -24.9416659 576.06222436 -29.39575195 575.73144531 C-30.73055477 575.6326687 -30.73055477 575.6326687 -32.0923233 575.53189659 C-35.7193686 575.26341073 -39.34636091 574.99421557 -42.97332764 574.72467041 C-49.27143895 574.25671011 -55.56975678 573.79169066 -61.8684082 573.33105469 C-62.72460251 573.26829723 -63.58079681 573.20553978 -64.4629364 573.14088058 C-75.17476666 572.35942206 -85.88050168 571.64661979 -96.61651611 571.28489685 C-101.14389895 571.12618531 -105.48738357 570.63450018 -109.9777832 569.99121094 C-114.18481581 569.62275775 -118.39725424 569.33972367 -122.6105957 569.05371094 C-123.83825653 568.96871338 -125.06591736 568.88371582 -126.33078003 568.79614258 C-128.93128994 568.61674736 -131.53188867 568.43863574 -134.13256836 568.26171875 C-138.04086371 567.99542978 -141.94878554 567.72411442 -145.85668945 567.45214844 C-147.12156189 567.36537842 -148.38643433 567.2786084 -149.68963623 567.18920898 C-152.2105288 567.01621251 -154.73124423 566.84061418 -157.25177002 566.66235352 C-162.94302126 566.27206618 -168.61213511 565.94573914 -174.31665039 565.85449219 C-175.76102982 565.82270874 -175.76102982 565.82270874 -177.23458862 565.7902832 C-178.99092848 565.75877478 -180.74793402 565.75072834 -182.50442505 565.7722168 C-186.81291665 565.68650358 -189.23054724 565.24004396 -192.38598633 562.18530273 C-194.30097531 559.96408368 -196.01220357 557.69483754 -197.4543457 555.13574219 C-200.09095902 550.70526386 -203.17392206 546.72998038 -206.3527832 542.67871094 C-207.4566683 541.23647527 -208.55821841 539.79244953 -209.6574707 538.34667969 C-212.92614071 534.05786986 -216.20133907 529.77408314 -219.4777832 525.49121094 C-220.56114675 524.07456738 -221.64448007 522.6579007 -222.7277832 521.24121094 C-223.2640332 520.53996094 -223.8002832 519.83871094 -224.3527832 519.11621094 C-255.2277832 478.74121094 -255.2277832 478.74121094 -256.85351562 476.61523438 C-257.93438338 475.20180443 -259.01527521 473.7883929 -260.09619141 472.375 C-262.84244825 468.78396392 -265.58825624 465.19258614 -268.33325195 461.60058594 C-273.20648545 455.22439258 -278.0820384 448.8501428 -282.9777832 442.49121094 C-286.75776704 437.58150657 -290.52697361 432.66370696 -294.2902832 427.74121094 C-295.10227173 426.67918457 -295.10227173 426.67918457 -295.93066406 425.59570312 C-298.8071334 421.83276402 -301.68212938 418.06870517 -304.5559082 414.30371094 C-305.13945068 413.53961914 -305.72299316 412.77552734 -306.32421875 411.98828125 C-307.43814749 410.52966693 -308.55161857 409.07070294 -309.66455078 407.61132812 C-310.17139404 406.9477832 -310.6782373 406.28423828 -311.20043945 405.60058594 C-311.90837646 404.6540918 -311.90837646 404.6540918 -312.63061523 403.68847656 C-314.07895218 401.78868362 -314.07895218 401.78868362 -316.47387695 399.56933594 C-318.53514373 396.03573575 -317.59841314 394.30689593 -316.65492249 390.47241211 C-315.58114355 386.53782785 -314.35638826 382.66611406 -313.0715332 378.79589844 C-312.79077942 377.93837479 -312.51002563 377.08085114 -312.22076416 376.19734192 C-311.31029651 373.41901457 -310.39404433 370.64263241 -309.4777832 367.86621094 C-308.84091449 365.92601865 -308.20452592 363.98566868 -307.56860352 362.04516602 C-306.60983448 359.11953066 -305.65082361 356.19397845 -304.69024658 353.26893616 C-302.00263409 345.08280532 -299.3595278 336.88293283 -296.7277832 328.67871094 C-293.59993386 318.94994242 -290.41046283 309.24395318 -287.1652832 299.55371094 C-281.84391256 283.66328761 -276.67078534 267.72580912 -271.50582886 251.78398132 C-269.54821319 245.74384071 -267.58150865 239.70671182 -265.6105957 233.67089844 C-260.62295289 218.387768 -255.66881544 203.09894297 -250.9152832 187.74121094 C-247.02302416 175.16959379 -242.91200305 162.67979601 -238.72631836 150.203125 C-234.99532175 139.07660542 -231.3259914 127.93108409 -227.69540405 116.77139282 C-226.79840029 114.0161435 -225.89866326 111.26179834 -224.99853516 108.50756836 C-222.35554168 100.40666209 -219.74596592 92.30014087 -217.2668457 84.14746094 C-216.85990351 82.82443172 -216.45260904 81.50151079 -216.04492188 80.17871094 C-215.31564145 77.79810761 -214.60115486 75.41289842 -213.90478516 73.02246094 C-213.58727295 71.99121094 -213.26976074 70.95996094 -212.94262695 69.89746094 C-212.6808667 69.01380859 -212.41910645 68.13015625 -212.14941406 67.21972656 C-209.13240496 61.48118539 -201.37667173 60.3457899 -195.60668945 58.54980469 C-194.58598862 58.22625504 -193.56528778 57.90270538 -192.51365662 57.5693512 C-190.32734917 56.87692138 -188.14014854 56.1873066 -185.95214844 55.50024414 C-180.20794513 53.69621492 -174.47022408 51.87176837 -168.73168945 50.04980469 C-167.60421295 49.69244232 -166.47673645 49.33507996 -165.31509399 48.96688843 C-157.17612624 46.38368836 -149.06705905 43.72642941 -140.9777832 40.99121094 C-128.08367765 36.6452687 -115.12865655 32.49996978 -102.1652832 28.36621094 C-84.58315479 22.75896108 -67.01942637 17.09893323 -49.4777832 11.36621094 C-48.46855804 11.03659363 -47.45933289 10.70697632 -46.41952515 10.36737061 C-44.45779032 9.72644698 -42.4962231 9.08501008 -40.53483582 8.44302368 C-38.66672934 7.83198813 -36.79809967 7.22254943 -34.9289093 6.61483765 C-30.54095154 5.18343032 -26.17203325 3.71692289 -21.82543945 2.1640625 C-21.0111145 1.87786041 -20.19678955 1.59165833 -19.35778809 1.29678345 C-17.84950729 0.76442484 -16.34535514 0.22013531 -14.84680176 -0.33901978 C-9.57431664 -2.18587317 -5.08884676 -2.59561966 0 0 Z " fill="#FBFAFB" transform="translate(2992.977783203125,1929.0087890625)"/>
<path d="M0 0 C4.67995947 1.12106796 9.22021734 2.68323444 13.78018188 4.21047974 C14.92052887 4.58690613 16.06087585 4.96333252 17.23577881 5.35116577 C20.33749285 6.37568914 23.43752927 7.40511686 26.53702927 8.43631363 C31.82864262 10.19419872 37.1253828 11.93663907 42.42122841 13.68172264 C43.7715995 14.12678976 45.12189892 14.57207439 46.47212791 15.0175724 C59.15741322 19.20296672 71.87409342 23.28534645 84.60440063 27.33157349 C107.49914067 34.61726726 130.32527093 42.10685836 153.14517212 49.62283325 C155.95055361 50.54669673 158.75597748 51.47043143 161.56143188 52.39407349 C162.58296891 52.73044232 162.58296891 52.73044232 163.62514305 53.07360649 C172.25929324 55.91584865 180.8999997 58.73655435 189.55361938 61.51907349 C190.4497847 61.80756165 191.34595001 62.0960498 192.26927185 62.39328003 C196.22961596 63.66728688 200.19148674 64.93612581 204.15640259 66.1958313 C205.48286244 66.62115035 206.8092817 67.04659601 208.13565063 67.47219849 C209.24359985 67.82443481 210.35154907 68.17667114 211.49307251 68.5395813 C214.16690063 69.51907349 214.16690063 69.51907349 217.16690063 71.51907349 C218.29674763 74.36728821 219.26522227 77.14639454 220.17080688 80.06594849 C220.45023636 80.93633759 220.72966583 81.80672668 221.01756287 82.70349121 C221.93113406 85.55571217 222.83011493 88.41231979 223.72940063 91.26907349 C224.35856954 93.24064894 224.98894791 95.21183882 225.62051392 97.18264771 C226.5725191 100.15379416 227.52380647 103.12514532 228.47116089 106.09777832 C231.08761455 114.30533102 233.79470248 122.47953391 236.54190063 130.64407349 C241.83848209 146.46076886 246.91749183 162.34207576 251.90908813 178.25735474 C257.30395229 195.4459951 262.80840884 212.58759961 268.53848267 229.66751099 C272.64853186 241.92390077 276.66724154 254.20856422 280.65957642 266.50375366 C281.5525031 269.25369734 282.44556824 272.00359597 283.33877563 274.75344849 C283.6431958 275.69066742 283.94761597 276.62788635 284.26126099 277.59350586 C286.66032687 284.97374761 289.07515523 292.34875472 291.49502563 299.72219849 C298.75563086 321.84837822 305.99543499 343.98068916 313.10787964 366.1550293 C313.80705967 368.33475357 314.50703561 370.51422273 315.20785522 372.69342041 C316.17613987 375.70604045 317.14086721 378.71977473 318.10440063 381.73391724 C318.38687653 382.6115976 318.66935242 383.48927795 318.96038818 384.39355469 C319.71518032 386.763333 320.44711754 389.13845493 321.16690063 391.51907349 C321.51654877 392.63276306 321.51654877 392.63276306 321.8732605 393.76895142 C323.36486316 398.92316037 323.36486316 398.92316037 322.45108032 401.67385864 C322.00151978 402.21317017 321.55195923 402.75248169 321.08877563 403.30813599 C320.59256714 403.9318811 320.09635864 404.55562622 319.58511353 405.19827271 C319.03460327 405.84038696 318.48409302 406.48250122 317.91690063 407.14407349 C316.78383959 408.55428734 315.65235282 409.96576739 314.52236938 411.37844849 C313.9517981 412.07647583 313.38122681 412.77450317 312.79336548 413.49368286 C310.47958191 416.37497204 308.34894045 419.36861556 306.22940063 422.39407349 C305.41370453 423.544317 304.59728128 424.69404515 303.78018188 425.84329224 C303.36075317 426.43416626 302.94132446 427.02504028 302.50918579 427.63381958 C294.91247024 438.30348809 287.18276803 448.87541 279.40054321 459.41018677 C273.25816855 467.73343229 267.20923144 476.12306543 261.16690063 484.51907349 C253.96626856 494.52457747 246.72439277 504.49595827 239.39981079 514.41116333 C233.8037801 521.99413418 228.28571551 529.63198517 222.78018188 537.28079224 C221.15200808 539.53973556 219.51952438 541.7955001 217.88565063 544.05032349 C217.33594604 544.80950073 216.78624146 545.56867798 216.21987915 546.3508606 C215.20805691 547.74802242 214.19562183 549.14474085 213.18228149 550.540802 C212.70154175 551.20523315 212.220802 551.86966431 211.72549438 552.55422974 C211.16289917 553.27054565 210.60030396 553.98686157 210.0206604 554.72488403 C208.42303926 557.13299334 207.47068396 559.15700406 206.40493774 561.80740356 C203.95366054 567.16838522 201.27176209 571.38222459 196.16690063 574.51907349 C185.15626769 577.5820971 173.01827505 576.47350936 161.70916748 576.15296555 C156.85974245 576.03169104 152.00975805 575.99941327 147.15908813 575.96072388 C140.67809409 575.90451941 134.19772869 575.83860761 127.71728516 575.73591614 C110.14994529 575.47177654 92.60981765 575.62493674 75.04447609 575.90080386 C64.46221899 576.06549818 53.87932177 576.17679763 43.29637051 576.28634167 C35.17349164 576.3721018 27.05201148 576.47993686 18.93017578 576.63702393 C11.92429569 576.77190937 4.91986825 576.85614566 -2.08730167 576.87949061 C-5.71274038 576.89316309 -9.33405047 576.93022405 -12.95824242 577.02943039 C-36.1750482 577.64166154 -36.1750482 577.64166154 -41.92785645 572.49302673 C-44.88983045 569.13294749 -46.82006351 565.50394401 -48.83309937 561.51907349 C-50.16528902 559.72419845 -51.53025795 557.95232128 -52.95028687 556.22610474 C-61.09397634 545.65264832 -68.88617625 534.9121219 -76.29940796 523.81448364 C-77.82046901 521.53797679 -79.3512302 519.26825846 -80.88388062 516.99954224 C-93.03700434 498.95941159 -104.34253497 480.57722798 -114.83309937 461.51907349 C-115.43025757 460.43980591 -116.02741577 459.36053833 -116.64266968 458.24856567 C-157.32382427 384.49121166 -184.06822455 303.99511621 -202.57846069 188.12625122 C-202.65605118 187.44764038 -202.73364166 186.76902954 -202.81358337 186.06985474 C-203.02274077 184.22767564 -203.22739199 182.3849865 -203.43173218 180.54226685 C-203.75443687 178.11157818 -204.20810282 175.88049158 -204.83309937 173.51907349 C-205.25888062 170.10501099 -205.25888062 170.10501099 -204.83309937 166.51907349 C-202.89906943 164.33598723 -201.31027388 162.85374397 -199.02059937 161.14407349 C-198.13199219 160.43819092 -198.13199219 160.43819092 -197.22543335 159.7180481 C-196.01318567 158.75659908 -194.79415741 157.80363656 -193.56845093 156.85940552 C-191.13746794 154.98178922 -188.76791704 153.03253921 -186.39559937 151.08157349 C-185.51001343 150.36098755 -184.62442749 149.64040161 -183.71200562 148.89797974 C-180.38228467 146.14655496 -177.10533314 143.33837844 -173.83309937 140.51907349 C-168.81990448 136.19978392 -163.74772617 131.9681023 -158.61044312 127.79641724 C-155.48913669 125.23703377 -152.40856512 122.63317433 -149.33309937 120.01907349 C-145.38659456 116.66460222 -141.41667865 113.34685519 -137.39559937 110.08157349 C-132.53180911 106.12399161 -127.77428705 102.05364902 -123.02474976 97.96072388 C-118.63509587 94.18572958 -114.17195165 90.51178887 -109.67684937 86.86282349 C-106.35623343 84.12605211 -103.09266228 81.32800964 -99.83309937 78.51907349 C-94.81718248 74.19734486 -89.74134638 69.96428153 -84.60263062 65.78860474 C-79.2886827 61.43401554 -74.0678317 56.96828913 -68.83309937 52.51907349 C-61.81795132 46.55660886 -54.77662645 40.6382941 -47.63778687 34.82376099 C-42.3169724 30.45150398 -37.08043601 25.97900205 -31.83309937 21.51907349 C-5.3768313 -0.96720359 -5.3768313 -0.96720359 0 0 Z " fill="#FBFAFB" transform="translate(1926.8330993652344,1914.4809265136719)"/>
<path d="M0 0 C1.38911012 -0.01407152 2.77819609 -0.03072578 4.1672473 -0.04974425 C7.98893679 -0.09428566 11.80991353 -0.10114934 15.63182878 -0.10174537 C19.75216373 -0.10873973 23.87217991 -0.1499622 27.99234009 -0.18640137 C37.004999 -0.25930143 46.01746326 -0.28716375 55.03037453 -0.30607557 C60.65951923 -0.31811372 66.28860213 -0.33963308 71.91770935 -0.3630867 C87.50641546 -0.42661586 103.09506652 -0.48001385 118.68390656 -0.49258995 C119.68179993 -0.49340422 120.6796933 -0.49421849 121.70782587 -0.49505744 C123.73078441 -0.49667283 125.75374296 -0.49828428 127.77670151 -0.4998918 C128.78089172 -0.50070296 129.78508193 -0.50151412 130.81970215 -0.50234985 C132.32782924 -0.50355579 132.32782924 -0.50355579 133.86642355 -0.50478609 C150.14784409 -0.51975657 166.42793915 -0.60865899 182.70888072 -0.73006468 C199.42879318 -0.85374089 216.14804582 -0.91731065 232.86842489 -0.92024481 C242.25471239 -0.9232451 251.63936733 -0.95163305 261.02522278 -1.04587936 C269.02056772 -1.12582697 277.01372029 -1.15045016 285.00937003 -1.10390811 C289.08734301 -1.08178978 293.16095981 -1.08512417 297.23842239 -1.15884399 C322.96301811 -1.59736527 322.96301811 -1.59736527 329.29109192 4.34957504 C332.05069392 7.62744359 334.07246635 11.08984658 335.86734295 14.9695785 C337.07454042 17.46227071 338.67894785 19.52027652 340.43200684 21.65341187 C340.9282959 22.3018103 341.42458496 22.95020874 341.93591309 23.61825562 C342.65714355 24.55798218 342.65714355 24.55798218 343.39294434 25.51669312 C343.93306152 26.2218103 344.47317871 26.92692749 345.02966309 27.65341187 C349.07418382 32.931368 353.12946646 38.20102475 357.18591309 43.46981812 C361.83634753 49.51556434 366.46327677 55.57935527 371.09460449 61.63973999 C373.81827697 65.20348303 376.54316096 68.76629942 379.26794434 72.32919312 C380.35128371 73.74585516 381.43461704 75.16252183 382.51794434 76.57919312 C383.32231934 77.63106812 383.32231934 77.63106812 384.14294434 78.70419312 C402.01794434 102.07919312 402.01794434 102.07919312 403.64367676 104.20516968 C404.72454451 105.61859962 405.80543635 107.03201115 406.88635254 108.44540405 C409.63260938 112.03644013 412.37841737 115.62781791 415.12341309 119.21981812 C419.99664658 125.59601148 424.87219953 131.97026126 429.76794434 138.32919312 C431.43487374 140.49565837 433.10156815 142.66230249 434.76794434 144.82919312 C435.2838916 145.49982788 435.79983887 146.17046265 436.3314209 146.86141968 C439.12816809 150.4989975 441.91697145 154.14210739 444.68981934 157.79794312 C446.56214444 160.26506124 448.46033957 162.70292344 450.40856934 165.11044312 C451.14591309 166.04888062 451.88325684 166.98731812 452.64294434 167.95419312 C453.27974121 168.74052124 453.91653809 169.52684937 454.57263184 170.33700562 C456.50200493 174.35968547 455.3616857 178.0367844 454.00976562 182.11801147 C452.99728347 184.80914166 451.93284792 187.47419562 450.84997559 190.13778687 C450.4454718 191.1510202 450.04096802 192.16425354 449.62420654 193.20819092 C448.74532086 195.40723259 447.86293189 197.60487664 446.97744751 199.80126953 C445.06307206 204.55009328 443.16571519 209.30566218 441.26695251 214.06074524 C440.27009949 216.55644111 439.2725276 219.05183422 438.2736969 221.54673767 C433.52751462 233.40504653 428.84989001 245.28993588 424.18725586 257.18133545 C422.82208998 260.66299973 421.45582097 264.14422922 420.0892334 267.62533569 C418.24736789 272.3173198 416.40590363 277.00946101 414.56481934 281.70175171 C407.56984725 299.52868709 400.56822175 317.35301126 393.56182861 335.17546082 C391.12624084 341.37135471 388.6930553 347.56818254 386.26234436 353.76599121 C384.85950377 357.34142436 383.45442891 360.91597609 382.04867554 364.49026489 C381.41286908 366.10824773 380.77801188 367.72660397 380.14419556 369.34536743 C379.28825422 371.53109189 378.42892374 373.71545364 377.56872559 375.89950562 C377.09604248 377.10365112 376.62335937 378.30779663 376.13635254 379.5484314 C375.68477783 380.63108276 375.23320312 381.71373413 374.76794434 382.82919312 C374.26786865 384.41945313 374.26786865 384.41945313 373.75769043 386.0418396 C370.58511757 390.48616651 366.26328858 391.04347927 361.13122559 392.35653687 C360.06173172 392.64785995 358.99223785 392.93918304 357.89033508 393.23933411 C346.33073971 396.33121889 334.66684905 398.9479396 322.95544434 401.39169312 C321.28407913 401.74362228 321.28407913 401.74362228 319.57894897 402.10266113 C298.26155767 406.56738558 276.90434319 409.96624466 255.28088379 412.53097534 C252.75847388 412.830317 250.23682426 413.13553348 247.71520996 413.4414978 C242.83929249 414.02939965 237.96070744 414.59115112 233.08044434 415.14169312 C232.01396164 415.26434036 232.01396164 415.26434036 230.92593384 415.38946533 C142.07353512 425.46902574 50.22444036 414.14219869 -35.69592285 390.76083374 C-38.24076484 390.0903617 -40.7744814 389.46690114 -43.33850098 388.88192749 C-44.02098907 388.71904236 -44.70347717 388.55615723 -45.40664673 388.38833618 C-47.31957093 387.93297846 -49.23690038 387.49624398 -51.15441895 387.06063843 C-55.92491485 385.15183458 -56.63689959 382.19133868 -58.61291504 377.66879272 C-59.3370459 375.84360107 -59.3370459 375.84360107 -60.07580566 373.98153687 C-60.35237503 373.28796585 -60.6289444 372.59439484 -60.91389465 371.87980652 C-61.85745298 369.51040457 -62.79467837 367.13854657 -63.73205566 364.76669312 C-64.42658172 363.0188209 -65.12150248 361.27110548 -65.81677246 359.52352905 C-67.39707296 355.54880034 -68.97443191 351.57291893 -70.54992676 347.59628296 C-73.20947249 340.8840371 -75.87516615 334.17424143 -78.54166031 327.4647541 C-83.37559984 315.30118246 -88.20545744 303.1359946 -93.03283691 290.96981812 C-97.5765904 279.51844913 -102.12265642 268.06800266 -106.6716671 256.61872101 C-108.48417175 252.05676548 -110.2963938 247.49469767 -112.10865116 242.93264389 C-113.54086 239.32738103 -114.97323775 235.72218549 -116.40603638 232.11715698 C-116.81174598 231.09627802 -116.81174598 231.09627802 -117.22565174 230.05477524 C-117.76372867 228.70084391 -118.30185931 227.34693392 -118.84004498 225.99304581 C-120.13698519 222.72944291 -121.43190427 219.46506544 -122.72233582 216.19888306 C-123.22290447 214.93239738 -123.72353988 213.66593808 -124.22424316 212.39950562 C-124.59231945 211.46849344 -124.59231945 211.46849344 -124.96783161 210.51867294 C-126.51648662 206.61029727 -128.08850216 202.71209169 -129.67620087 198.81941986 C-130.73285491 196.224703 -131.77980438 193.62612994 -132.82545471 191.02696228 C-133.55636756 189.22097213 -134.30071291 187.42043664 -135.04541016 185.62008667 C-135.48018677 184.53602539 -135.91496338 183.45196411 -136.36291504 182.33505249 C-136.74943237 181.3886792 -137.13594971 180.44230591 -137.53417969 179.46725464 C-138.32483775 176.47846482 -138.1212034 174.76476614 -137.23205566 171.82919312 C-136.03967285 169.80307007 -136.03967285 169.80307007 -134.52893066 167.81747437 C-133.68672974 166.69490234 -133.68672974 166.69490234 -132.82751465 165.5496521 C-132.21851318 164.75502563 -131.60951172 163.96039917 -130.98205566 163.14169312 C-129.69606793 161.43138049 -128.41093096 159.72042789 -127.12658691 158.00888062 C-126.47383789 157.14359741 -125.82108887 156.27831421 -125.14855957 155.3868103 C-122.27268307 151.548889 -119.46833171 147.66101583 -116.66955566 143.76669312 C-115.59404736 142.27449658 -114.51852652 140.78230909 -113.44299316 139.29013062 C-112.37256056 137.80323791 -111.30224793 136.31625882 -110.23205566 134.82919312 C-103.03142358 124.82368914 -95.7895478 114.85230834 -88.46496582 104.93710327 C-82.86773393 97.35250472 -77.34796939 89.71330982 -71.84094238 82.06307983 C-68.60059372 77.56396143 -65.35177865 73.07095193 -62.10461426 68.57675171 C-59.40607545 64.84124812 -56.70947613 61.10437831 -54.01721191 57.36434937 C-48.4640087 49.65456238 -42.87761566 41.97166789 -37.23205566 34.32919312 C-32.49340156 27.91343815 -27.78122486 21.47961043 -23.10705566 15.01669312 C-22.30848145 13.91454468 -22.30848145 13.91454468 -21.49377441 12.79013062 C-20.9923291 12.09532593 -20.49088379 11.40052124 -19.97424316 10.68466187 C-19.53966797 10.08291138 -19.10509277 9.48116089 -18.65734863 8.86117554 C-17.07097511 6.75832574 -17.07097511 6.75832574 -15.96997833 3.75401878 C-12.48379212 -1.38497115 -5.53452161 -0.02804269 0 0 Z " fill="#FBFAFB" transform="translate(2302.2320556640625,2345.1708068847656)"/>
</svg>
